<?xml version="1.0" encoding="utf-8"?>
<!-- Generator: Adobe Illustrator 16.0.0, SVG Export Plug-In . SVG Version: 6.00 Build 0)  -->
<!DOCTYPE svg PUBLIC "-//W3C//DTD SVG 1.1//EN" "http://www.w3.org/Graphics/SVG/1.1/DTD/svg11.dtd">
<svg version="1.1" id="Layer_1" xmlns="http://www.w3.org/2000/svg" xmlns:xlink="http://www.w3.org/1999/xlink" x="0px" y="0px"
	 width="841.889px" height="595.281px" viewBox="0 0 841.889 595.281" enable-background="new 0 0 841.889 595.281"
	 xml:space="preserve">
<g>
	<g>
		<g>
			<path fill="#FFFFFF" d="M440.147,163.222h-19.202v-48.007h19.202V76.81v-9.602V51.953L346.621,0h-24.176l-93.526,51.953v15.256
				v9.602v38.405h19.202v48.007h-19.202v57.607h211.228V163.222z M327.418,19.203h14.229l69.119,38.405H258.299L327.418,19.203z
				 M248.121,76.81h172.823v19.203H248.121V76.81z M401.742,115.216v48.007h-19.203v-48.007H401.742z M363.337,115.216v48.007
				h-19.203v-48.007H363.337z M324.932,115.216v48.007H305.73v-48.007H324.932z M286.527,115.216v48.007h-19.202v-48.007H286.527z
				 M420.945,201.628H248.121v-19.203h172.823V201.628z"/>
			<polygon fill="#FFFFFF" points="526.559,268.837 545.761,268.837 545.761,76.81 459.35,76.81 459.35,96.013 526.559,96.013 			
				"/>
			<path fill="#FFFFFF" d="M526.559,576.078H219.318v-76.811h-76.811V96.013h67.209V76.81h-86.411v436.033l82.437,82.438h340.02
				V518.47h-19.202V576.078z M200.115,562.502l-44.032-44.031h44.032V562.502z"/>
			<path fill="#FFFFFF" d="M468.951,268.837c-68.822,0-124.817,55.994-124.817,124.816S400.129,518.47,468.951,518.47
				c68.821,0,124.816-55.995,124.816-124.817S537.773,268.837,468.951,268.837z M468.951,499.267
				c-58.232,0-105.614-47.382-105.614-105.614c0-58.231,47.382-105.614,105.614-105.614c58.231,0,105.614,47.383,105.614,105.614
				C574.566,451.885,527.183,499.267,468.951,499.267z"/>
			<path fill="#FFFFFF" d="M449.748,345.647h38.405c10.581,0,19.202,8.612,19.202,19.202h19.203
				c0-21.181-17.225-38.405-38.405-38.405h-9.602v-19.202H459.35v19.202h-9.602c-21.181,0-38.405,17.225-38.405,38.405
				s17.225,38.405,38.405,38.405h38.405c10.581,0,19.202,8.612,19.202,19.202c0,10.591-8.621,19.203-19.202,19.203h-38.405
				c-10.59,0-19.202-8.612-19.202-19.203h-19.203c0,21.181,17.225,38.405,38.405,38.405h9.602v19.203h19.202v-19.203h9.602
				c21.181,0,38.405-17.225,38.405-38.405c0-21.18-17.225-38.404-38.405-38.404h-38.405c-10.59,0-19.202-8.613-19.202-19.203
				S439.158,345.647,449.748,345.647z"/>
			<polygon fill="#FFFFFF" points="687.582,316.843 667.016,345.647 603.369,345.647 603.369,364.849 653.296,364.849 
				643.56,378.473 659.182,389.631 711.172,316.843 659.182,244.055 643.56,255.212 653.296,268.837 564.964,268.837 
				564.964,288.039 667.016,288.039 			"/>
			<polygon fill="#FFFFFF" points="718.584,441.66 718.584,422.457 639.854,422.457 649.58,408.833 633.959,397.677 
				581.968,470.464 633.959,543.251 649.58,532.094 639.854,518.47 718.584,518.47 718.584,499.267 626.134,499.267 
				605.558,470.464 626.134,441.66 			"/>
			<polygon fill="#FFFFFF" points="334.533,441.66 334.533,422.457 284.607,422.457 294.332,408.833 278.711,397.677 
				226.72,470.464 278.711,543.251 294.332,532.094 284.607,518.47 382.539,518.47 382.539,499.267 270.886,499.267 
				250.311,470.464 270.886,441.66 			"/>
			<polygon fill="#FFFFFF" points="288.313,378.473 303.934,389.631 355.925,316.843 303.934,244.055 288.313,255.212 
				298.048,268.837 219.318,268.837 219.318,288.039 311.769,288.039 332.334,316.843 311.769,345.647 219.318,345.647 
				219.318,364.849 298.048,364.849 			"/>
		</g>
	</g>
</g>
</svg>
