<?xml version="1.0" encoding="utf-8"?>
<!-- Generator: Adobe Illustrator 16.0.0, SVG Export Plug-In . SVG Version: 6.00 Build 0)  -->
<!DOCTYPE svg PUBLIC "-//W3C//DTD SVG 1.1//EN" "http://www.w3.org/Graphics/SVG/1.1/DTD/svg11.dtd">
<svg version="1.1" id="Capa_1" xmlns="http://www.w3.org/2000/svg" xmlns:xlink="http://www.w3.org/1999/xlink" x="0px" y="0px"
	 width="841.889px" height="595.281px" viewBox="0 0 841.889 595.281" enable-background="new 0 0 841.889 595.281"
	 xml:space="preserve">
<g>
	<g>
		<path fill="#FFFFFF" d="M612.846,482.32c-4.816,0-8.72,3.904-8.72,8.72v81.984c0,2.654-2.161,4.814-4.815,4.814h-46.874V406.117
			c0-4.815-3.904-8.72-8.721-8.72c-4.815,0-8.72,3.904-8.72,8.72V577.84h-94.39l27.372-30.113c2.99-3.29,4.4-7.977,3.771-12.541
			c-0.012-0.089-0.025-0.177-0.041-0.266l-26.07-154.014l7.024-10.573c3.883,2.758,6.874,5.414,12.484,5.414
			c5.706,0,11.042-3.194,13.667-8.452v-0.001l27.497-55.109l62.639,24.259c2.267,0.972,35.173,15.791,35.173,54.921v58.982
			c-0.001,4.814,3.903,8.72,8.72,8.72s8.721-3.904,8.721-8.72v-58.982c0-51.557-44.146-70.297-46.024-71.07
			c-0.055-0.023-0.11-0.046-0.166-0.066L471.12,279.852v-24.45c16.559-12.878,28.04-31.968,30.922-53.746
			c8.256-0.581,15.917-3.665,22.173-9.045c8.17-7.025,12.858-17.251,12.858-28.05c0-8.962-3.233-17.519-8.996-24.187v-32.303
			C528.076,48.481,479.596,0,420.005,0S311.934,48.481,311.934,108.072v33.149c-5.823,6.6-8.99,14.725-8.99,23.339
			c0,10.802,4.686,21.026,12.857,28.054c6.252,5.377,13.908,8.457,22.161,9.039c2.906,22.188,14.722,41.988,32.69,55.039v23.16
			l-104.14,40.374c-0.055,0.021-0.109,0.043-0.164,0.064c-1.88,0.773-46.024,19.515-46.024,71.071v181.659
			c0,12.272,9.984,22.256,22.256,22.256h83.08c4.815,0,8.72-3.904,8.72-8.72c0-4.816-3.904-8.72-8.72-8.72h-18.762V406.117
			c0-4.815-3.904-8.72-8.72-8.72c-4.816,0-8.72,3.904-8.72,8.72V577.84h-46.878c-2.654,0-4.814-2.16-4.814-4.814V391.363
			c0-39.262,33.128-54.047,35.162-54.917l62.591-24.265l27.499,55.112c2.631,5.271,7.974,8.453,13.668,8.453
			c5.582,0,8.545-2.615,12.485-5.414l7.023,10.573l-26.068,154.016c-0.015,0.087-0.027,0.174-0.04,0.263
			c-0.631,4.562,0.779,9.251,3.771,12.544l27.372,30.112h-34.874c-4.815,0-8.72,3.904-8.72,8.72c0,4.816,3.904,8.72,8.72,8.72
			h232.956c12.271,0,22.255-9.984,22.255-22.255v-81.983C621.566,486.224,617.661,482.32,612.846,482.32z M489.977,305.859
			l-25.635,51.378c-0.638-0.452-14.223-10.104-30.83-21.897c7.206-8.896-1.225,1.51,31.665-39.085L489.977,305.859z
			 M438.435,360.229l-6.648,10.008h-21.745l-6.648-10.008l17.521-12.443L438.435,360.229z M388.092,282.667v-16.319
			c10.594,4.271,21.915,6.25,32.973,6.25c11.432,0,22.644-2.437,32.614-6.797v16.937l-32.765,40.443L388.092,282.667z
			 M519.632,164.561c-0.001,5.712-2.476,11.117-6.789,14.827c-2.852,2.453-6.297,4.021-10.069,4.636v-38.922
			C512.795,146.729,519.632,155.043,519.632,164.561z M337.241,184.024c-10.136-1.646-16.858-10.025-16.858-19.464
			c0-9.322,7.729-16.91,16.858-19.021V184.024z M337.71,127.771c-2.777,0.318-5.961,1.071-8.334,1.878v-21.577
			c0-49.974,40.656-90.631,90.63-90.631c49.975,0,90.631,40.657,90.631,90.631v20.979c-2.535-0.771-5.164-1.28-7.862-1.52
			c0-8.414,0.073-6.791-27.452-36.385c-5.063-5.438-13.437-6.578-19.809-2.415c-30.38,19.846-67.439,29.815-101.634,27.36
			C346.38,115.53,339.548,120.469,337.71,127.771z M354.683,190.889v-54.402v-2.866c37.641,2.204,77.104-8.979,108.986-29.396
			c12.624,13.554,19.46,20.664,21.664,23.368c0,6.841,0,55.465,0,63.295c0,35.399-28.863,64.268-64.268,64.268
			C381.31,255.157,354.683,224.316,354.683,190.889z M377.489,357.237l-25.636-51.378l24.757-9.589l31.671,39.095
			C392.175,346.802,378.949,356.199,377.489,357.237z M387.492,536.802l25.24-149.126h16.359l25.24,149.126l-33.419,36.767
			L387.492,536.802z"/>
	</g>
</g>
</svg>
