<?xml version="1.0" encoding="utf-8"?>
<!-- Generator: Adobe Illustrator 16.0.0, SVG Export Plug-In . SVG Version: 6.00 Build 0)  -->
<!DOCTYPE svg PUBLIC "-//W3C//DTD SVG 1.1//EN" "http://www.w3.org/Graphics/SVG/1.1/DTD/svg11.dtd">
<svg version="1.1" id="Capa_1" xmlns="http://www.w3.org/2000/svg" xmlns:xlink="http://www.w3.org/1999/xlink" x="0px" y="0px"
	 width="841.889px" height="595.281px" viewBox="0 0 841.889 595.281" enable-background="new 0 0 841.889 595.281"
	 xml:space="preserve">
<g>
	<g>
		<path fill="#FFFFFF" d="M699.382,499.267V172.823c0-26.471-21.536-48.006-48.007-48.006h-74.544l-11.867-5.934v-90.08
			C564.964,12.924,552.04,0,536.16,0H267.324c-15.881,0-28.805,12.924-28.805,28.804v96.014h-48.006
			c-26.471,0-48.007,21.535-48.007,48.006v326.444h-19.202v48.007c0,26.471,21.535,48.007,48.006,48.007h499.268
			c26.471,0,48.006-21.536,48.006-48.007v-48.007H699.382z M257.723,28.803c0-5.29,4.311-9.601,9.602-9.601H536.16
			c5.29,0,9.601,4.311,9.601,9.601v101.947l38.405,19.202v84.146l-38.405,19.203v111.548h-9.601
			c0-29.523-11.263-56.398-29.582-76.811h0.777v-44.031l19.203-19.203V38.405H257.723V28.803z M516.957,364.849
			c0,52.941-43.071,96.013-96.013,96.013s-96.013-43.071-96.013-96.013s43.071-96.013,96.013-96.013
			S516.957,311.908,516.957,364.849z M257.723,57.608h249.633v159.247l-19.202,19.202v35.4
			c-18.943-13.673-42.121-21.824-67.209-21.824c-50.052,0-92.623,32.136-108.494,76.811h-54.728V57.608z M257.723,345.647h49.744
			c-1.056,6.26-1.737,12.645-1.737,19.202h-38.405c-5.291,0-9.602-4.311-9.602-9.602V345.647z M161.71,172.823
			c0-15.88,12.923-28.804,28.804-28.804h48.006v19.203h-38.404c-10.591,0-19.203,8.612-19.203,19.202v297.641h19.203V182.425h38.404
			v172.823c0,15.881,12.924,28.805,28.805,28.805h40.143c9.179,54.4,56.504,96.013,113.478,96.013s104.299-41.612,113.478-96.013
			h30.542V265.169l38.405-19.203v-63.541h38.405v297.641h19.202V182.425c0-10.59-8.612-19.202-19.202-19.202h-38.405v-19.203h48.006
			c15.881,0,28.805,12.924,28.805,28.804v326.444H161.71V172.823z M488.154,518.47v9.601c0,5.291-4.311,9.602-9.602,9.602H363.337
			c-5.29,0-9.602-4.311-9.602-9.602v-9.601H488.154z M699.382,547.274c0,15.88-12.923,28.804-28.804,28.804H171.311
			c-15.88,0-28.804-12.924-28.804-28.804V518.47h192.026v9.601c0,15.881,12.923,28.805,28.804,28.805h115.215
			c15.881,0,28.804-12.924,28.804-28.805v-9.601h192.026V547.274z"/>
	</g>
</g>
<g>
	<g>
		<rect x="180.912" y="537.673" fill="#FFFFFF" width="19.203" height="19.203"/>
	</g>
</g>
<g>
	<g>
		<rect x="219.318" y="537.673" fill="#FFFFFF" width="19.202" height="19.203"/>
	</g>
</g>
<g>
	<g>
		<rect x="257.723" y="537.673" fill="#FFFFFF" width="19.202" height="19.203"/>
	</g>
</g>
<g>
	<g>
		<path fill="#FFFFFF" d="M478.552,320.04l-36.484,48.65l15.362,11.521l11.521-15.362c0,26.471-21.536,48.007-48.007,48.007
			s-48.006-21.536-48.006-48.007s21.535-48.007,48.006-48.007V297.64c-37.061,0-67.209,30.148-67.209,67.209
			c0,37.062,30.148,67.209,67.209,67.209s67.209-30.147,67.209-67.209l11.521,15.362l15.362-11.521L478.552,320.04z"/>
	</g>
</g>
<g>
	<g>
		<rect x="545.761" y="163.222" fill="#FFFFFF" width="19.203" height="57.607"/>
	</g>
</g>
</svg>
