<?xml version="1.0" encoding="utf-8"?>
<!-- Generator: Adobe Illustrator 16.0.0, SVG Export Plug-In . SVG Version: 6.00 Build 0)  -->
<!DOCTYPE svg PUBLIC "-//W3C//DTD SVG 1.1//EN" "http://www.w3.org/Graphics/SVG/1.1/DTD/svg11.dtd">
<svg version="1.1" id="Layer_1" xmlns="http://www.w3.org/2000/svg" xmlns:xlink="http://www.w3.org/1999/xlink" x="0px" y="0px"
	 width="841.889px" height="595.281px" viewBox="0 0 841.889 595.281" enable-background="new 0 0 841.889 595.281"
	 xml:space="preserve">
<g>
	<g>
		<g>
			<path fill="#FFFFFF" d="M219.318,0v268.837h19.202V96.013h460.862v288.039H488.154v19.202h230.431V0H219.318z M699.382,76.81
				H238.52V19.203h460.862V76.81z"/>
			<rect x="257.723" y="38.405" fill="#FFFFFF" width="19.202" height="19.203"/>
			<rect x="296.128" y="38.405" fill="#FFFFFF" width="19.202" height="19.203"/>
			<rect x="334.533" y="38.405" fill="#FFFFFF" width="19.202" height="19.203"/>
			<path fill="#FFFFFF" d="M427.896,364.849h31.454V115.216H257.723v134.418v9.602v24.464c-11.339,3.14-22.228,7.662-32.52,13.519
				l-24.118-24.118l-54.315,54.314l24.119,24.119c-5.857,10.292-10.379,21.18-13.519,32.52h-34.065v76.81h34.065
				c3.14,11.34,7.661,22.228,13.519,32.52l-24.119,24.119l54.315,54.314l24.118-24.118c10.292,5.856,21.189,10.388,32.52,13.519
				v34.065h76.811v-34.066c11.339-3.139,22.227-7.661,32.52-13.519l24.118,24.119l54.314-54.314l-24.118-24.119
				c5.856-10.292,10.389-21.189,13.519-32.52h34.065v-76.81h-34.065C433.071,377.475,430.642,371.1,427.896,364.849z
				 M440.147,345.647h-12.895l12.895-12.895V345.647z M276.925,134.418h163.222v187.648l-48.976-48.977l-24.118,24.118
				c-10.293-5.856-21.19-10.389-32.52-13.519v-34.056h-57.608V134.418z M449.748,441.66h-30.1l-1.651,7.547
				c-3.14,14.344-8.795,27.959-16.813,40.459l-4.177,6.51l21.325,21.325l-27.162,27.162l-21.324-21.325l-6.51,4.167
				c-12.501,8.018-26.115,13.683-40.46,16.813l-7.547,1.661v30.1h-38.405v-30.1l-7.546-1.652
				c-14.345-3.139-27.959-8.794-40.46-16.812l-6.51-4.177l-21.324,21.325l-27.162-27.162l21.324-21.325l-4.167-6.51
				c-8.018-12.5-13.682-26.115-16.812-40.459l-1.661-7.547h-30.101v-38.405h30.101l1.651-7.547
				c3.14-14.344,8.795-27.959,16.821-40.46l4.177-6.51l-21.325-21.324l27.162-27.162l21.325,21.324l6.5-4.166
				c12.501-8.018,26.115-13.683,40.46-16.813l7.546-1.661v-30.1h38.405v30.1l7.547,1.651c14.345,3.14,27.959,8.795,40.46,16.813
				l6.51,4.177l21.324-21.325l27.162,27.162l-21.325,21.324l4.167,6.51c8.018,12.501,13.683,26.116,16.813,40.46l1.661,7.547h30.1
				V441.66z"/>
			<path fill="#FFFFFF" d="M296.128,345.647c-42.352,0-76.811,34.459-76.811,76.81c0,42.352,34.459,76.811,76.811,76.811
				s76.811-34.459,76.811-76.811C372.939,380.106,338.48,345.647,296.128,345.647z M296.128,480.065
				c-31.771,0-57.608-25.837-57.608-57.608c0-31.771,25.838-57.607,57.608-57.607s57.607,25.837,57.607,57.607
				C353.736,454.228,327.899,480.065,296.128,480.065z"/>
			<path fill="#FFFFFF" d="M680.18,115.216H478.552v249.634H680.18V115.216z M660.977,345.647H497.755V134.418h163.222V345.647z"/>
			<rect x="296.128" y="153.621" fill="#FFFFFF" width="124.816" height="19.202"/>
			<rect x="296.128" y="192.026" fill="#FFFFFF" width="124.816" height="19.202"/>
			<rect x="353.736" y="230.431" fill="#FFFFFF" width="67.209" height="19.202"/>
			<rect x="516.957" y="153.621" fill="#FFFFFF" width="124.817" height="19.202"/>
			<rect x="516.957" y="192.026" fill="#FFFFFF" width="124.817" height="19.202"/>
			<rect x="516.957" y="230.431" fill="#FFFFFF" width="124.817" height="19.202"/>
			<rect x="516.957" y="268.837" fill="#FFFFFF" width="124.817" height="19.202"/>
			<rect x="622.572" y="307.242" fill="#FFFFFF" width="19.203" height="19.202"/>
			<rect x="516.957" y="307.242" fill="#FFFFFF" width="86.412" height="19.202"/>
		</g>
	</g>
</g>
</svg>
