<?xml version="1.0" encoding="utf-8"?>
<!-- Generator: Adobe Illustrator 16.0.0, SVG Export Plug-In . SVG Version: 6.00 Build 0)  -->
<!DOCTYPE svg PUBLIC "-//W3C//DTD SVG 1.1//EN" "http://www.w3.org/Graphics/SVG/1.1/DTD/svg11.dtd">
<svg version="1.1" id="Layer_1" xmlns="http://www.w3.org/2000/svg" xmlns:xlink="http://www.w3.org/1999/xlink" x="0px" y="0px"
	 width="841.889px" height="595.281px" viewBox="0 0 841.889 595.281" enable-background="new 0 0 841.889 595.281"
	 xml:space="preserve">
<g>
	<g>
		<g>
			<path fill="#FFFFFF" d="M223.523,488.802c14.854-10.437,24.599-27.662,24.599-47.143c0-31.771-25.837-57.607-57.607-57.607
				s-57.608,25.837-57.608,57.607c0,19.48,9.746,36.706,24.599,47.143c-20.383,11.55-34.199,33.412-34.199,58.472v48.007h134.418
				v-48.007C257.723,522.215,243.906,500.352,223.523,488.802z M152.109,441.66c0-21.181,17.225-38.405,38.405-38.405
				s38.405,17.225,38.405,38.405s-17.225,38.405-38.405,38.405S152.109,462.841,152.109,441.66z M238.52,576.078h-96.013v-28.804
				c0-26.471,21.536-48.007,48.007-48.007s48.006,21.536,48.006,48.007V576.078z"/>
			<path fill="#FFFFFF" d="M377.144,488.802c14.854-10.437,24.599-27.662,24.599-47.143c0-31.771-25.837-57.607-57.608-57.607
				c-31.771,0-57.607,25.837-57.607,57.607c0,19.48,9.745,36.706,24.599,47.143c-20.384,11.55-34.2,33.412-34.2,58.472v48.007
				h134.418v-48.007C411.343,522.215,397.527,500.352,377.144,488.802z M305.73,441.66c0-21.181,17.225-38.405,38.404-38.405
				c21.181,0,38.405,17.225,38.405,38.405s-17.225,38.405-38.405,38.405C322.954,480.065,305.73,462.841,305.73,441.66z
				 M392.141,576.078h-96.013v-28.804c0-26.471,21.535-48.007,48.006-48.007s48.007,21.536,48.007,48.007V576.078z"/>
			<path fill="#FFFFFF" d="M530.764,488.802c14.854-10.437,24.599-27.662,24.599-47.143c0-31.771-25.837-57.607-57.607-57.607
				s-57.608,25.837-57.608,57.607c0,19.48,9.746,36.706,24.599,47.143c-20.383,11.55-34.199,33.412-34.199,58.472v48.007h134.418
				v-48.007C564.964,522.215,551.148,500.352,530.764,488.802z M459.35,441.66c0-21.181,17.225-38.405,38.405-38.405
				s38.405,17.225,38.405,38.405s-17.225,38.405-38.405,38.405S459.35,462.841,459.35,441.66z M545.761,576.078h-96.013v-28.804
				c0-26.471,21.536-48.007,48.007-48.007s48.006,21.536,48.006,48.007V576.078z"/>
			<path fill="#FFFFFF" d="M684.385,488.802c14.854-10.437,24.599-27.662,24.599-47.143c0-31.771-25.837-57.607-57.608-57.607
				c-31.771,0-57.607,25.837-57.607,57.607c0,19.48,9.745,36.706,24.599,47.143c-20.384,11.55-34.2,33.412-34.2,58.472v48.007
				h134.418v-48.007C718.584,522.215,704.769,500.352,684.385,488.802z M612.971,441.66c0-21.181,17.225-38.405,38.404-38.405
				c21.181,0,38.405,17.225,38.405,38.405s-17.225,38.405-38.405,38.405C630.196,480.065,612.971,462.841,612.971,441.66z
				 M699.382,576.078h-96.013v-28.804c0-26.471,21.535-48.007,48.006-48.007s48.007,21.536,48.007,48.007V576.078z"/>
			<path fill="#FFFFFF" d="M603.369,326.444c21.181,0,38.405,17.225,38.405,38.405h19.202c0-24.502-15.4-45.414-37.003-53.729
				c55.773-25.981,94.61-82.428,94.61-147.898C718.584,73.219,645.365,0,555.363,0H286.527c-90.003,0-163.222,73.22-163.222,163.223
				c0,65.471,38.837,121.917,94.611,147.898c-21.604,8.314-37.004,29.227-37.004,53.729h19.203
				c0-21.181,17.225-38.405,38.404-38.405h38.405v-0.489c3.197,0.191,6.356,0.489,9.602,0.489h48.007v38.405h19.202v-38.405h134.418
				v38.405h19.202v-38.405h48.007c3.245,0,6.404-0.298,9.602-0.489v0.489H603.369z M555.363,307.242H286.527
				c-79.412,0-144.02-64.607-144.02-144.02c0-79.413,64.607-144.02,144.02-144.02h268.836c79.412,0,144.02,64.606,144.02,144.02
				C699.382,242.635,634.775,307.242,555.363,307.242z"/>
			<rect x="334.533" y="76.81" fill="#FFFFFF" width="172.822" height="19.203"/>
			<rect x="334.533" y="115.216" fill="#FFFFFF" width="172.822" height="19.202"/>
			<rect x="334.533" y="153.621" fill="#FFFFFF" width="172.822" height="19.202"/>
			<rect x="334.533" y="192.026" fill="#FFFFFF" width="172.822" height="19.202"/>
			<rect x="334.533" y="230.431" fill="#FFFFFF" width="134.418" height="19.202"/>
			<rect x="488.154" y="230.431" fill="#FFFFFF" width="19.202" height="19.202"/>
			<path fill="#FFFFFF" d="M670.578,115.216c0-15.881-12.924-28.804-28.804-28.804c-15.881,0-28.804,12.923-28.804,28.804
				c0,7.969,3.254,15.18,8.497,20.402l-24.858,66.297c-0.95-0.096-1.872-0.287-2.842-0.287c-8.209,0-15.583,3.494-20.835,9.024
				l-27.172-5.952V38.405H296.128v111.692l-19.385-4.244c0.038-0.614,0.182-1.21,0.182-1.834c0-15.881-12.923-28.804-28.804-28.804
				s-28.804,12.923-28.804,28.804c0,5.146,1.469,9.908,3.841,14.095l-18.579,24.762c-1.459-0.23-2.938-0.451-4.464-0.451
				c-15.881,0-28.805,12.924-28.805,28.804c0,15.881,12.924,28.804,28.805,28.804c15.88,0,28.804-12.923,28.804-28.804
				c0-7.316-2.833-13.932-7.346-19.02l16.073-21.431c3.255,1.287,6.769,2.045,10.475,2.045c8.209,0,15.583-3.494,20.835-9.024
				l27.172,5.952v118.288h249.633v-63.686l19.386,4.244c-0.039,0.614-0.183,1.21-0.183,1.834c0,15.88,12.923,28.804,28.804,28.804
				s28.804-12.924,28.804-28.804c0-7.97-3.255-15.18-8.497-20.403l24.857-66.297c0.951,0.097,1.873,0.288,2.843,0.288
				C657.655,144.019,670.578,131.096,670.578,115.216z M200.115,220.83c-5.301,0-9.602-4.302-9.602-9.602s4.301-9.601,9.602-9.601
				c5.3,0,9.601,4.301,9.601,9.601S205.415,220.83,200.115,220.83z M248.121,153.621c-5.3,0-9.602-4.302-9.602-9.602
				s4.302-9.602,9.602-9.602s9.602,4.302,9.602,9.602S253.421,153.621,248.121,153.621z M526.559,268.837H315.33V57.608h211.229
				V268.837z M593.768,240.032c-5.3,0-9.602-4.301-9.602-9.601s4.302-9.602,9.602-9.602s9.602,4.302,9.602,9.602
				S599.068,240.032,593.768,240.032z M641.775,124.817c-5.3,0-9.602-4.302-9.602-9.602s4.302-9.602,9.602-9.602
				s9.601,4.302,9.601,9.602S647.074,124.817,641.775,124.817z"/>
		</g>
	</g>
</g>
</svg>
