<?xml version="1.0" encoding="utf-8"?>
<!-- Generator: Adobe Illustrator 16.0.0, SVG Export Plug-In . SVG Version: 6.00 Build 0)  -->
<!DOCTYPE svg PUBLIC "-//W3C//DTD SVG 1.1//EN" "http://www.w3.org/Graphics/SVG/1.1/DTD/svg11.dtd">
<svg version="1.1" id="Layer_1" xmlns="http://www.w3.org/2000/svg" xmlns:xlink="http://www.w3.org/1999/xlink" x="0px" y="0px"
	 width="841.889px" height="595.281px" viewBox="0 0 841.889 595.281" enable-background="new 0 0 841.889 595.281"
	 xml:space="preserve">
<g>
	<g>
		<g>
			<path fill="#FFFFFF" d="M622.572,297.64V140.045L482.528,0H123.305v595.281h499.267V480.065h96.013V297.64H622.572z
				 M488.154,32.779l101.64,101.639h-101.64V32.779z M603.369,576.078H142.507V19.203h326.444v134.418h134.418v144.02h-19.203
				v19.202h-6.403l-34.027-25.521l-26.778-53.556v-64.943h-54.506l-22.305,55.765v30.647l6.903,28.804H345.872l-11.569,57.839
				l12.635,50.551l-31.607,26.749v-19.923H161.71v153.621h153.62V448.323l36.802-31.137l1.901,7.595l22.572,45.683h182.732
				l9.601-9.602h15.228v19.203h19.203V576.078z M459.35,258.054v-25.78l16.102-40.248h22.304v50.272l30.829,61.659l42.784,32.088
				h12.798V441.66h-23.178l-9.601,9.602H388.473l-16.082-32.155l-18.425-73.699l7.633-38.165h110.05L459.35,258.054z
				 M214.181,518.47h18.252l63.695-53.893v73.095H180.912V422.457h115.216v16.966l-70.724,59.845h-0.95l-16.351-24.531
				l-15.977,10.648L214.181,518.47z M699.382,460.862h-96.013v-144.02h96.013V460.862z"/>
			<path fill="#FFFFFF" d="M315.33,83.473l44.607-37.742L347.543,31.07L315.33,58.328V38.405H161.71v153.621h153.62V83.473z
				 M296.128,74.573l-70.724,59.845h-0.95l-16.351-24.531l-15.977,10.648l22.054,33.086h18.252l63.695-53.893v73.095H180.912V57.608
				h115.216V74.573z"/>
			<path fill="#FFFFFF" d="M315.33,265.898l44.607-37.742l-12.395-14.661l-32.213,27.258V220.83H161.71v153.621h153.62V265.898z
				 M296.128,256.998l-70.724,59.845h-0.95l-16.351-24.531l-15.977,10.648l22.054,33.086h18.252l63.695-53.893v73.095H180.912
				V240.032h115.216V256.998z"/>
		</g>
	</g>
</g>
</svg>
