<?xml version="1.0" encoding="utf-8"?>
<!-- Generator: Adobe Illustrator 16.0.0, SVG Export Plug-In . SVG Version: 6.00 Build 0)  -->
<!DOCTYPE svg PUBLIC "-//W3C//DTD SVG 1.1//EN" "http://www.w3.org/Graphics/SVG/1.1/DTD/svg11.dtd">
<svg version="1.1" id="Capa_1" xmlns="http://www.w3.org/2000/svg" xmlns:xlink="http://www.w3.org/1999/xlink" x="0px" y="0px"
	 width="841.889px" height="595.281px" viewBox="0 0 841.889 595.281" enable-background="new 0 0 841.889 595.281"
	 xml:space="preserve">
<g>
	<g>
		<path fill="#FFFFFF" d="M584.311,520.717c-7.307-24.329-27.364-42.265-52.356-46.815l-63.003-11.445v-4.982
			c11.166-6.481,20.883-15.151,28.621-25.415h19.385c15.881,0,28.804-12.923,28.804-28.804V260.416
			c0-26.797-17.551-50.167-43.004-57.771l-4.801-4.801c-22.332-22.323-52.01-34.622-83.607-34.622
			c-65.193,0-118.221,53.037-118.221,118.221v73.805c0,18.512,13.163,33.998,30.618,37.608
			c5.387,27.595,22.631,50.944,46.192,64.617v4.982l-63.004,11.455c-25.002,4.551-45.05,22.486-52.356,46.815l-22.361,74.555
			h371.455L584.311,520.717z M526.559,403.255c0,5.29-4.302,9.602-9.602,9.602h-8.074c2.784-6.347,4.896-13.039,6.26-20
			c4.109-0.854,7.893-2.486,11.416-4.541V403.255z M516.957,371.782v-33.067c5.713,3.332,9.602,9.457,9.602,16.533
			S522.67,368.45,516.957,371.782z M324.932,371.772c-5.713-3.322-9.602-9.448-9.602-16.524s3.889-13.201,9.602-16.533V371.772z
			 M324.932,307.242v10.965c-3.418,0.893-6.625,2.236-9.602,3.975v-40.738c0-54.603,44.426-99.019,99.019-99.019
			c26.461,0,51.328,10.303,70.021,29.006l8.469,8.468l2.593,0.644c18.328,4.59,31.127,20.979,31.127,39.874v61.766
			c-2.977-1.738-6.184-3.092-9.602-3.975v-10.965h-30.455c-26.02,0-50.877-12.425-66.489-33.23l-7.623-10.196l-19.087,19.087
			c-15.698,15.698-36.571,24.34-58.77,24.34H324.932z M344.134,374.451v-48.448c23.706-2.199,45.712-12.481,62.745-29.534
			l3.734-3.734c19.27,21.248,46.998,33.7,75.889,33.7h11.253v48.007c0,13.999-3.821,27.095-10.389,38.405h-66.422v19.202h50.638
			c-13.538,11.915-31.233,19.203-50.638,19.203C378.593,451.261,344.134,416.802,344.134,374.451z M392.957,466.277
			c8.861,2.708,18.252,4.187,27.987,4.187s19.126-1.479,27.987-4.187l-27.987,20.989L392.957,466.277z M406.331,500.304
			l-19.586,19.597l-12.722-38.127l6.115-1.114L406.331,500.304z M461.75,480.66l6.116,1.114l-12.722,38.127l-19.587-19.597
			L461.75,480.66z M261.026,576.078l14.959-49.84c5.213-17.379,19.538-30.196,37.396-33.441l41.574-7.557l23.398,70.205
			l42.591-42.602l42.61,42.602l23.398-70.205l41.574,7.557c17.849,3.245,32.183,16.063,37.396,33.432l14.939,49.85H261.026z"/>
	</g>
</g>
<g>
	<g>
		<path fill="#FFFFFF" d="M324.932,0H152.109c-15.881,0-28.804,12.924-28.804,28.804v115.216c0,15.881,12.923,28.804,28.804,28.804
			h44.81l92.786,69.601l-9.937-69.601h45.164c15.881,0,28.804-12.923,28.804-28.804V28.803C353.736,12.924,340.813,0,324.932,0z
			 M334.533,144.019c0,5.29-4.302,9.602-9.602,9.602h-67.314l6.528,45.615l-60.833-45.615h-51.204c-5.3,0-9.602-4.312-9.602-9.602
			V28.803c0-5.29,4.302-9.601,9.602-9.601h172.823c5.3,0,9.602,4.311,9.602,9.601V144.019z"/>
	</g>
</g>
<g>
	<g>
		<rect x="161.71" y="38.405" fill="#FFFFFF" width="153.62" height="19.203"/>
	</g>
</g>
<g>
	<g>
		<rect x="161.71" y="115.216" fill="#FFFFFF" width="115.215" height="19.202"/>
	</g>
</g>
<g>
	<g>
		<path fill="#FFFFFF" d="M689.781,150.769c18.358-16.418,28.804-39.615,28.804-64.357C718.584,38.77,679.824,0,632.173,0
			s-86.412,38.771-86.412,86.412c0,24.742,10.446,47.939,28.805,64.357v12.453h-19.203v19.202h19.203v38.405h115.215v-38.405h19.203
			v-19.202h-19.203V150.769z M670.578,201.628h-76.811v-19.203h76.811V201.628z M622.572,86.412c0-5.29,4.302-9.602,9.602-9.602
			s9.602,4.312,9.602,9.602s-4.302,9.602-9.602,9.602S622.572,91.702,622.572,86.412z M674.169,138.835l-3.591,2.881v21.507h-28.804
			v-49.773c11.146-3.975,19.202-14.536,19.202-27.037c0-15.881-12.923-28.804-28.804-28.804s-28.804,12.923-28.804,28.804
			c0,12.501,8.056,23.063,19.202,27.037v49.773h-28.804v-21.507l-3.591-2.881c-16.024-12.856-25.213-31.973-25.213-52.423
			c0-37.062,30.157-67.209,67.209-67.209s67.209,30.147,67.209,67.209C699.382,106.862,690.194,125.978,674.169,138.835z"/>
	</g>
</g>
<g>
	<g>
		<rect x="161.71" y="76.81" fill="#FFFFFF" width="153.62" height="19.203"/>
	</g>
</g>
<g>
	<g>
		<rect x="296.128" y="115.216" fill="#FFFFFF" width="19.202" height="19.202"/>
	</g>
</g>
</svg>
