<?xml version="1.0" encoding="utf-8"?>
<!-- Generator: Adobe Illustrator 16.0.0, SVG Export Plug-In . SVG Version: 6.00 Build 0)  -->
<!DOCTYPE svg PUBLIC "-//W3C//DTD SVG 1.1//EN" "http://www.w3.org/Graphics/SVG/1.1/DTD/svg11.dtd">
<svg version="1.1" id="Capa_1" xmlns="http://www.w3.org/2000/svg" xmlns:xlink="http://www.w3.org/1999/xlink" x="0px" y="0px"
	 width="841.889px" height="595.281px" viewBox="0 0 841.889 595.281" enable-background="new 0 0 841.889 595.281"
	 xml:space="preserve">
<g>
	<g>
		<path fill="#FFFFFF" d="M161.71,345.647v134.418h153.62V345.647H161.71z M296.128,460.862H180.912v-96.013h115.216V460.862z"/>
	</g>
</g>
<g>
	<g>
		<rect x="334.533" y="460.862" fill="#FFFFFF" width="115.215" height="19.203"/>
	</g>
</g>
<g>
	<g>
		<rect x="334.533" y="422.457" fill="#FFFFFF" width="115.215" height="19.203"/>
	</g>
</g>
<g>
	<g>
		<rect x="334.533" y="384.052" fill="#FFFFFF" width="115.215" height="19.202"/>
	</g>
</g>
<g>
	<g>
		<rect x="334.533" y="345.647" fill="#FFFFFF" width="153.62" height="19.202"/>
	</g>
</g>
<g>
	<g>
		<rect x="200.115" y="192.026" fill="#FFFFFF" width="345.646" height="19.202"/>
	</g>
</g>
<g>
	<g>
		<rect x="161.71" y="307.242" fill="#FFFFFF" width="345.646" height="19.202"/>
	</g>
</g>
<g>
	<g>
		<rect x="161.71" y="230.431" fill="#FFFFFF" width="384.051" height="19.202"/>
	</g>
</g>
<g>
	<g>
		<rect x="161.71" y="268.837" fill="#FFFFFF" width="384.051" height="19.202"/>
	</g>
</g>
<g>
	<g>
		<path fill="#FFFFFF" d="M593.768,460.862c-10.59,0-19.202-8.612-19.202-19.202c0-10.591,8.612-19.203,19.202-19.203
			s19.203,8.612,19.203,19.203h19.202c0-17.84-12.28-32.75-28.804-37.042v-20.565h-19.203v20.565
			c-16.523,4.292-28.804,19.202-28.804,37.042c0,21.181,17.225,38.405,38.405,38.405c10.59,0,19.203,8.612,19.203,19.202
			c0,10.591-8.613,19.203-19.203,19.203s-19.202-8.612-19.202-19.203h-19.203c0,17.84,12.28,32.75,28.804,37.042v20.566h19.203
			v-20.566c16.523-4.292,28.804-19.202,28.804-37.042C632.173,478.087,614.948,460.862,593.768,460.862z"/>
	</g>
</g>
<g>
	<g>
		<rect x="660.977" y="460.862" fill="#FFFFFF" width="19.203" height="19.203"/>
	</g>
</g>
<g>
	<g>
		<rect x="507.356" y="460.862" fill="#FFFFFF" width="19.203" height="19.203"/>
	</g>
</g>
<g>
	<g>
		<path fill="#FFFFFF" d="M593.768,345.647c-3.245,0-6.423,0.239-9.602,0.489V0H234.305l-111,121.082V518.47h355.247v-0.077
			c18.828,45.098,63.369,76.888,115.216,76.888c30.763,0,60.315-11.292,83.215-31.79l-12.809-14.307
			c-19.375,17.341-44.377,26.894-70.406,26.894c-58.231,0-105.614-47.383-105.614-105.614s47.383-105.614,105.614-105.614
			s105.614,47.383,105.614,105.614c0,22.275-6.855,43.58-19.808,61.602l15.583,11.215c15.323-21.315,23.427-46.489,23.427-72.816
			C718.584,401.641,662.59,345.647,593.768,345.647z M248.121,134.418v-76.81h278.438v96.013H180.912v-19.203H248.121z
			 M228.919,34.277v80.938H154.73L228.919,34.277z M564.964,349.133c-54.958,13.058-96.013,62.437-96.013,121.331
			c0,9.928,1.286,19.539,3.485,28.804h-329.93v-364.85h19.203v38.405h384.051V38.405h-297.64V19.203h316.843V349.133z"/>
	</g>
</g>
<g>
	<g>
		<rect x="161.71" y="192.026" fill="#FFFFFF" width="19.202" height="19.202"/>
	</g>
</g>
<g>
	<g>
		<rect x="526.559" y="307.242" fill="#FFFFFF" width="19.202" height="19.202"/>
	</g>
</g>
</svg>
