<?xml version="1.0" encoding="utf-8"?>
<!-- Generator: Adobe Illustrator 16.0.0, SVG Export Plug-In . SVG Version: 6.00 Build 0)  -->
<!DOCTYPE svg PUBLIC "-//W3C//DTD SVG 1.1//EN" "http://www.w3.org/Graphics/SVG/1.1/DTD/svg11.dtd">
<svg version="1.1" id="Capa_1" xmlns="http://www.w3.org/2000/svg" xmlns:xlink="http://www.w3.org/1999/xlink" x="0px" y="0px"
	 width="841.889px" height="595.281px" viewBox="0 0 841.889 595.281" enable-background="new 0 0 841.889 595.281"
	 xml:space="preserve">
<g>
	<g>
		<path fill="#FFFFFF" d="M708.663,0H133.226c-5.952,0-9.921,3.969-9.921,9.922v456.382c0,5.952,3.969,9.921,9.921,9.921h39.686
			v109.135c0,5.953,3.969,9.922,9.921,9.922h476.225c5.952,0,9.921-3.969,9.921-9.922V476.224h39.686
			c5.953,0,9.921-3.969,9.921-9.921V9.922C718.584,3.969,714.616,0,708.663,0z M698.742,19.843v59.528H143.148V19.843H698.742z
			 M649.135,238.112H192.754v-59.528h456.381V238.112z M192.754,575.438V257.955h456.381v317.483H192.754z M668.978,456.382V168.663
			c0-5.953-3.969-9.922-9.921-9.922H182.832c-5.952,0-9.921,3.969-9.921,9.922v287.719h-29.764V99.214h555.595v357.168H668.978z"/>
		<rect x="162.99" y="39.685" fill="#FFFFFF" width="39.685" height="19.843"/>
		<rect x="222.518" y="39.685" fill="#FFFFFF" width="39.686" height="19.843"/>
		<rect x="212.597" y="198.427" fill="#FFFFFF" width="39.686" height="19.843"/>
		<rect x="272.124" y="198.427" fill="#FFFFFF" width="39.686" height="19.843"/>
		<rect x="659.057" y="39.685" fill="#FFFFFF" width="19.843" height="19.843"/>
		<rect x="619.371" y="39.685" fill="#FFFFFF" width="19.843" height="19.843"/>
		<rect x="609.45" y="198.427" fill="#FFFFFF" width="19.843" height="19.843"/>
		<rect x="569.765" y="198.427" fill="#FFFFFF" width="19.843" height="19.843"/>
		<path fill="#FFFFFF" d="M232.44,466.303h158.741c5.952,0,9.921-3.969,9.921-9.922V297.64c0-5.953-3.969-9.922-9.921-9.922H232.44
			c-5.953,0-9.922,3.969-9.922,9.922v158.741C222.518,462.335,226.487,466.303,232.44,466.303z M242.361,386.932h59.528v59.528
			h-59.528V386.932z M321.732,446.461v-59.528h59.527v59.528H321.732z M381.259,367.09h-59.527v-59.528h59.527V367.09z
			 M301.889,307.561v59.528h-59.528v-59.528H301.889z"/>
		<rect x="430.865" y="287.719" fill="#FFFFFF" width="39.686" height="19.843"/>
		<rect x="430.865" y="327.404" fill="#FFFFFF" width="19.843" height="19.843"/>
		<rect x="470.551" y="327.404" fill="#FFFFFF" width="19.843" height="19.843"/>
		<rect x="510.237" y="327.404" fill="#FFFFFF" width="19.843" height="19.843"/>
		<rect x="549.922" y="327.404" fill="#FFFFFF" width="19.843" height="19.843"/>
		<rect x="589.608" y="327.404" fill="#FFFFFF" width="19.843" height="19.843"/>
		<rect x="500.316" y="287.719" fill="#FFFFFF" width="39.685" height="19.843"/>
		<rect x="569.765" y="287.719" fill="#FFFFFF" width="39.686" height="19.843"/>
		<rect x="430.865" y="367.09" fill="#FFFFFF" width="178.585" height="19.843"/>
		<rect x="430.865" y="406.775" fill="#FFFFFF" width="178.585" height="19.843"/>
		<rect x="430.865" y="446.461" fill="#FFFFFF" width="178.585" height="19.843"/>
		<rect x="222.518" y="505.988" fill="#FFFFFF" width="19.843" height="19.843"/>
		<rect x="262.203" y="505.988" fill="#FFFFFF" width="19.843" height="19.843"/>
		<rect x="301.889" y="505.988" fill="#FFFFFF" width="19.843" height="19.843"/>
		<rect x="341.574" y="505.988" fill="#FFFFFF" width="267.876" height="19.843"/>
	</g>
</g>
</svg>
