<?xml version="1.0" encoding="utf-8"?>
<!-- Generator: Adobe Illustrator 16.0.0, SVG Export Plug-In . SVG Version: 6.00 Build 0)  -->
<!DOCTYPE svg PUBLIC "-//W3C//DTD SVG 1.1//EN" "http://www.w3.org/Graphics/SVG/1.1/DTD/svg11.dtd">
<svg version="1.1" id="Layer_1" xmlns="http://www.w3.org/2000/svg" xmlns:xlink="http://www.w3.org/1999/xlink" x="0px" y="0px"
	 width="841.889px" height="595.281px" viewBox="0 0 841.889 595.281" enable-background="new 0 0 841.889 595.281"
	 xml:space="preserve">
<g id="Geo-tag">
	<path fill="#FFFFFF" d="M420.945,0C308.113,0,216.318,89.878,216.318,200.358c0,98.689,122.078,297.568,174.597,378.545
		c6.522,10.255,17.74,16.378,30.03,16.378c12.316,0,23.562-6.142,30.02-16.342c52.501-80.969,174.608-279.938,174.608-378.581
		C625.573,89.878,533.777,0,420.945,0z M435.305,568.902c-3.088,4.869-8.447,7.775-14.36,7.775c-5.805,0-11.3-2.979-14.343-7.775
		c-0.019-0.027-0.036-0.054-0.055-0.082C354.946,489.26,234.92,294.097,234.92,200.358c0-100.225,83.446-181.756,186.024-181.756
		c102.577,0,186.025,81.531,186.025,181.756C606.97,294.043,486.951,489.243,435.305,568.902z"/>
	<path fill="#FFFFFF" d="M420.945,83.712c-56.417,0-102.313,45.896-102.313,102.313c0,56.416,45.896,102.313,102.313,102.313
		c56.416,0,102.313-45.897,102.313-102.313C523.258,129.608,477.361,83.712,420.945,83.712z M420.945,269.736
		c-46.161,0-83.711-37.55-83.711-83.711s37.55-83.711,83.711-83.711c46.16,0,83.711,37.55,83.711,83.711
		S467.105,269.736,420.945,269.736z"/>
</g>
</svg>
