<?xml version="1.0" encoding="utf-8"?>
<!-- Generator: Adobe Illustrator 16.0.0, SVG Export Plug-In . SVG Version: 6.00 Build 0)  -->
<!DOCTYPE svg PUBLIC "-//W3C//DTD SVG 1.1//EN" "http://www.w3.org/Graphics/SVG/1.1/DTD/svg11.dtd">
<svg version="1.1" id="Layer_1" xmlns="http://www.w3.org/2000/svg" xmlns:xlink="http://www.w3.org/1999/xlink" x="0px" y="0px"
	 width="841.889px" height="595.281px" viewBox="0 0 841.889 595.281" enable-background="new 0 0 841.889 595.281"
	 xml:space="preserve">
<g>
	<g>
		<path fill="#FFFFFF" d="M708.164,135.915H290.043c-5.755,0-10.421,4.666-10.421,10.421v302.608
			c0,5.755,4.666,10.421,10.421,10.421h326.314c5.756,0,10.422-4.666,10.422-10.421s-4.666-10.421-10.422-10.421H317.316
			l141.792-126.9l33.046,29.575c1.979,1.771,4.464,2.655,6.949,2.655c2.486,0,4.972-0.885,6.949-2.655l33.042-29.571
			l141.788,126.896h-29.786c-5.755,0-10.421,4.666-10.421,10.421s4.666,10.421,10.421,10.421h57.068
			c5.755,0,10.42-4.666,10.42-10.421V146.336C718.584,140.581,713.919,135.915,708.164,135.915z M499.103,319.448l-100.3-89.762
			c-4.288-3.838-10.876-3.474-14.715,0.816c-3.838,4.289-3.474,10.877,0.816,14.716l58.576,52.421L300.464,425.635V169.649
			l57.881,51.8c1.988,1.78,4.472,2.655,6.945,2.655c2.861,0,5.712-1.171,7.77-3.471c3.838-4.289,3.474-10.876-0.816-14.714
			l-54.93-49.158h363.578L499.103,319.448z M697.742,425.642L554.722,297.641l143.02-127.994L697.742,425.642L697.742,425.642z"/>
	</g>
</g>
<g>
	<g>
		<path fill="#FFFFFF" d="M242.797,172.592h-81.281c-5.756,0-10.421,4.666-10.421,10.421s4.665,10.421,10.421,10.421h81.281
			c5.755,0,10.421-4.666,10.421-10.421S248.552,172.592,242.797,172.592z"/>
	</g>
</g>
<g>
	<g>
		<path fill="#FFFFFF" d="M249.743,318.481H175.41c-5.755,0-10.421,4.665-10.421,10.421c0,5.755,4.666,10.421,10.421,10.421h74.333
			c5.755,0,10.421-4.666,10.421-10.421C260.165,323.146,255.498,318.481,249.743,318.481z"/>
	</g>
</g>
<g>
	<g>
		<path fill="#FFFFFF" d="M221.953,255.957h-88.228c-5.756,0-10.421,4.666-10.421,10.421s4.665,10.421,10.421,10.421h88.228
			c5.756,0,10.421-4.666,10.421-10.421S227.709,255.957,221.953,255.957z"/>
	</g>
</g>
<g>
	<g>
		<path fill="#FFFFFF" d="M221.953,401.847h-8.546c-5.756,0-10.421,4.665-10.421,10.421c0,5.755,4.665,10.421,10.421,10.421h8.546
			c5.756,0,10.421-4.666,10.421-10.421C232.376,406.512,227.709,401.847,221.953,401.847z"/>
	</g>
</g>
<g>
	<g>
		<path fill="#FFFFFF" d="M178.67,401.847h-44.944c-5.756,0-10.421,4.665-10.421,10.421c0,5.755,4.665,10.421,10.421,10.421h44.944
			c5.756,0,10.421-4.666,10.421-10.421C189.091,406.512,184.426,401.847,178.67,401.847z"/>
	</g>
</g>
</svg>
