<?xml version="1.0" encoding="utf-8"?>
<!-- Generator: Adobe Illustrator 16.0.0, SVG Export Plug-In . SVG Version: 6.00 Build 0)  -->
<!DOCTYPE svg PUBLIC "-//W3C//DTD SVG 1.1//EN" "http://www.w3.org/Graphics/SVG/1.1/DTD/svg11.dtd">
<svg version="1.1" id="Layer_1" xmlns="http://www.w3.org/2000/svg" xmlns:xlink="http://www.w3.org/1999/xlink" x="0px" y="0px"
	 width="841.889px" height="595.281px" viewBox="0 0 841.889 595.281" enable-background="new 0 0 841.889 595.281"
	 xml:space="preserve">
<g>
	<path fill="#FFFFFF" d="M718.177,489.953c-1.893-14.305-10.15-26.638-22.653-33.837l-146.857-84.555
		c-17.987-10.356-40.806-7.342-55.486,7.339l-28.927,28.926c-7.697,7.699-19.875,8.38-28.321,1.583
		c-22.804-18.35-45.257-38.544-66.733-60.022c-21.478-21.477-41.672-43.929-60.022-66.734c-6.797-8.446-6.117-20.623,1.583-28.322
		l28.925-28.926c14.681-14.679,17.699-37.494,7.34-55.485L262.469,23.061c-7.2-12.505-19.532-20.761-33.837-22.653
		c-14.306-1.896-28.361,2.874-38.564,13.077l-43.586,43.588c-30.421,30.421-30.909,86.068-1.376,156.691
		c28.398,67.907,81.394,142.662,149.223,210.493c67.831,67.829,142.585,120.825,210.493,149.223
		c34.764,14.537,65.895,21.802,92.18,21.801c27.112,0,49.064-7.731,64.513-23.178l43.585-43.587
		C715.301,518.313,720.069,504.258,718.177,489.953L718.177,489.953z M539.043,388.273l146.858,84.556
		c7.263,4.181,12.059,11.345,13.156,19.652c0.923,6.973-0.889,13.838-4.995,19.37L498.891,400.463l7.926-7.926
		C515.342,384.011,528.598,382.26,539.043,388.273z M226.103,19.527c8.309,1.099,15.472,5.895,19.652,13.157l84.556,146.858
		c6.017,10.448,4.263,23.701-4.263,32.225l-7.28,7.281L206.767,24.522c4.578-3.391,10.054-5.231,15.763-5.231
		C223.713,19.291,224.907,19.369,226.103,19.527L226.103,19.527z M647.875,558.467c-24.168,24.168-73.598,23.155-135.613-2.779
		c-65.646-27.452-138.199-78.972-204.296-145.067c-66.097-66.097-117.616-138.65-145.067-204.296
		c-25.937-62.017-26.948-111.446-2.78-135.615l32.357-32.358l112.169,194.821l-7.523,7.522
		c-14.676,14.678-15.953,37.912-2.971,54.05c18.782,23.343,39.444,46.315,61.409,68.28c21.967,21.966,44.939,42.628,68.28,61.41
		c16.136,12.983,39.37,11.706,54.051-2.973l6.862-6.862l195.443,111.544L647.875,558.467L647.875,558.467z"/>
</g>
</svg>
