<?xml version="1.0" encoding="utf-8"?>
<!-- Generator: Adobe Illustrator 16.0.0, SVG Export Plug-In . SVG Version: 6.00 Build 0)  -->
<!DOCTYPE svg PUBLIC "-//W3C//DTD SVG 1.1//EN" "http://www.w3.org/Graphics/SVG/1.1/DTD/svg11.dtd">
<svg version="1.1" id="Layer_1" xmlns="http://www.w3.org/2000/svg" xmlns:xlink="http://www.w3.org/1999/xlink" x="0px" y="0px"
	 width="841.889px" height="595.281px" viewBox="0 0 841.889 595.281" enable-background="new 0 0 841.889 595.281"
	 xml:space="preserve">
<g>
	<g>
		<g>
			<path fill="#FFFFFF" d="M709.264,475.975c5.148,0,9.32-4.171,9.32-9.32V138.568c0-2.472-0.98-4.842-2.729-6.592l-99.42-99.42
				c-1.75-1.747-4.119-2.729-6.591-2.729H400.439v-1.866C400.439,12.544,387.895,0,372.477,0h-221.21
				c-15.418,0-27.962,12.544-27.962,27.962v300.747c0,15.418,12.544,27.962,27.962,27.962h71.458V585.96
				c0,5.148,4.171,9.32,9.32,9.32h477.219c5.148,0,9.32-4.171,9.32-9.32v-69.595c0-5.148-4.171-9.321-9.32-9.321
				c-5.148,0-9.321,4.172-9.321,9.321v60.273H241.366V356.671h131.11c15.418,0,27.962-12.544,27.962-27.962V168.387
				c0-5.148-4.172-9.321-9.32-9.321c-5.149,0-9.321,4.172-9.321,9.321V328.71c0,5.141-4.181,9.321-9.321,9.321H151.267
				c-5.141,0-9.321-4.181-9.321-9.321V27.962c0-5.14,4.181-9.32,9.321-9.32h221.21c5.141,0,9.321,4.181,9.321,9.32v90.721
				c0,5.148,4.172,9.321,9.321,9.321s9.32-4.172,9.32-9.321V48.468h200.115c-0.014,0.206-0.031,0.412-0.031,0.621v89.478
				c0,5.148,4.172,9.321,9.321,9.321h89.478c0.211,0,0.416-0.018,0.621-0.031v318.8
				C699.944,471.804,704.115,475.975,709.264,475.975z M619.164,129.247V61.649l67.599,67.598H619.164L619.164,129.247z"/>
		</g>
	</g>
	<g>
		<g>
			<path fill="#FFFFFF" d="M353.836,427.508h-62.138c-5.148,0-9.321,4.172-9.321,9.321c0,5.148,4.172,9.321,9.321,9.321h62.138
				c5.148,0,9.321-4.172,9.321-9.321C363.156,431.68,358.985,427.508,353.836,427.508z"/>
		</g>
	</g>
	<g>
		<g>
			<path fill="#FFFFFF" d="M353.836,477.219h-62.138c-5.148,0-9.321,4.172-9.321,9.321c0,5.148,4.172,9.32,9.321,9.32h62.138
				c5.148,0,9.321-4.171,9.321-9.32C363.156,481.39,358.985,477.219,353.836,477.219z"/>
		</g>
	</g>
	<g>
		<g>
			<path fill="#FFFFFF" d="M540.249,288.319c-38.096,0-73.605,15.142-99.989,42.636c-3.564,3.715-3.444,9.614,0.271,13.179
				c3.716,3.566,9.615,3.444,13.179-0.271c22.836-23.796,53.57-36.901,86.54-36.901c66.128,0,119.926,53.798,119.926,119.926
				c0,66.127-53.798,119.926-119.926,119.926c-66.127,0-119.926-53.799-119.926-119.926c0-19.53,4.544-38.15,13.506-55.344
				c2.379-4.566,0.606-10.194-3.957-12.574c-4.564-2.375-10.194-0.607-12.574,3.958c-10.215,19.601-15.615,41.718-15.615,63.96
				c0,76.406,62.161,138.567,138.567,138.567s138.568-62.161,138.568-138.567S616.655,288.319,540.249,288.319z"/>
		</g>
	</g>
	<g>
		<g>
			<path fill="#FFFFFF" d="M561.528,418.809l-14.444-0.426v-51.771h32.934c5.148,0,9.321-4.172,9.321-9.321
				c0-5.148-4.172-9.321-9.321-9.321h-32.934v-10.563c0-5.148-4.171-9.321-9.32-9.321c-5.148,0-9.321,4.172-9.321,9.321v10.563
				h-9.321c-15.418,0-27.962,12.544-27.962,27.962v32.312c0,15.367,12.463,27.881,27.811,27.962l9.473,0.278v50.674H500.48
				c-5.148,0-9.321,4.172-9.321,9.321c0,5.148,4.172,9.321,9.321,9.321h27.962v10.563c0,5.148,4.172,9.321,9.321,9.321
				c5.147,0,9.32-4.172,9.32-9.321v-10.563h14.292c15.418,0,27.962-12.544,27.962-27.962v-31.069
				C589.338,431.404,576.875,418.891,561.528,418.809z M528.443,417.836l-9.046-0.266c-0.09-0.003-0.182-0.004-0.273-0.004
				c-5.141,0-9.321-4.181-9.321-9.321v-32.312c0-5.14,4.181-9.32,9.321-9.32h9.32L528.443,417.836L528.443,417.836z
				 M570.698,477.841c0,5.14-4.182,9.321-9.321,9.321h-14.292v-50.127l14.018,0.413c0.091,0.002,0.183,0.003,0.274,0.003
				c5.14,0,9.321,4.181,9.321,9.321V477.841z"/>
		</g>
	</g>
	<g>
		<g>
			<path fill="#FFFFFF" d="M361.292,29.826H162.451c-5.148,0-9.321,4.171-9.321,9.32v49.711c0,5.148,4.172,9.321,9.321,9.321
				h198.841c5.148,0,9.321-4.172,9.321-9.321V39.146C370.614,33.999,366.442,29.826,361.292,29.826z M351.971,79.536H171.773V48.468
				h180.2v31.068H351.971z"/>
		</g>
	</g>
	<g>
		<g>
			<path fill="#FFFFFF" d="M202.22,109.363h-39.769c-5.148,0-9.321,4.172-9.321,9.321v39.769c0,5.148,4.172,9.321,9.321,9.321
				h39.769c5.148,0,9.321-4.172,9.321-9.321v-39.769C211.54,113.535,207.368,109.363,202.22,109.363z M192.899,149.131h-21.126
				v-21.127h21.126V149.131z"/>
		</g>
	</g>
	<g>
		<g>
			<path fill="#FFFFFF" d="M281.756,109.363h-39.769c-5.148,0-9.321,4.172-9.321,9.321v39.769c0,5.148,4.172,9.321,9.321,9.321
				h39.769c5.148,0,9.321-4.172,9.321-9.321v-39.769C291.077,113.535,286.905,109.363,281.756,109.363z M272.435,149.131h-21.126
				v-21.127h21.126V149.131z"/>
		</g>
	</g>
	<g>
		<g>
			<path fill="#FFFFFF" d="M361.292,109.363h-39.769c-5.148,0-9.321,4.172-9.321,9.321v39.769c0,5.148,4.172,9.321,9.321,9.321
				h39.769c5.148,0,9.321-4.172,9.321-9.321v-39.769C370.614,113.535,366.442,109.363,361.292,109.363z M351.971,149.131h-21.126
				v-21.127h21.126V149.131z"/>
		</g>
	</g>
	<g>
		<g>
			<path fill="#FFFFFF" d="M202.22,188.899h-39.769c-5.148,0-9.321,4.172-9.321,9.321v39.769c0,5.148,4.172,9.321,9.321,9.321
				h39.769c5.148,0,9.321-4.172,9.321-9.321V198.22C211.54,193.071,207.368,188.899,202.22,188.899z M192.899,228.667h-21.126
				V207.54h21.126V228.667z"/>
		</g>
	</g>
	<g>
		<g>
			<path fill="#FFFFFF" d="M281.756,188.899h-39.769c-5.148,0-9.321,4.172-9.321,9.321v39.769c0,5.148,4.172,9.321,9.321,9.321
				h39.769c5.148,0,9.321-4.172,9.321-9.321V198.22C291.077,193.071,286.905,188.899,281.756,188.899z M272.435,228.667h-21.126
				V207.54h21.126V228.667z"/>
		</g>
	</g>
	<g>
		<g>
			<path fill="#FFFFFF" d="M202.22,268.435h-39.769c-5.148,0-9.321,4.172-9.321,9.321v39.769c0,5.148,4.172,9.321,9.321,9.321
				h39.769c5.148,0,9.321-4.172,9.321-9.321v-39.769C211.54,272.607,207.368,268.435,202.22,268.435z M192.899,308.204h-21.126
				v-21.126h21.126V308.204z"/>
		</g>
	</g>
	<g>
		<g>
			<path fill="#FFFFFF" d="M281.756,268.435h-39.769c-5.148,0-9.321,4.172-9.321,9.321v39.769c0,5.148,4.172,9.321,9.321,9.321
				h39.769c5.148,0,9.321-4.172,9.321-9.321v-39.769C291.077,272.607,286.905,268.435,281.756,268.435z M272.435,308.204h-21.126
				v-21.126h21.126V308.204z"/>
		</g>
	</g>
	<g>
		<g>
			<path fill="#FFFFFF" d="M361.292,188.899h-39.769c-5.148,0-9.321,4.172-9.321,9.321v119.305c0,5.148,4.172,9.321,9.321,9.321
				h39.769c5.148,0,9.321-4.172,9.321-9.321V198.22C370.614,193.071,366.442,188.899,361.292,188.899z M351.971,308.204h-21.126
				V207.541h21.126V308.204z"/>
		</g>
	</g>
	<g>
		<g>
			<path fill="#FFFFFF" d="M675.911,219.789l-50.771-48.212c-3.731-3.546-9.63-3.392-13.177,0.341
				c-3.546,3.731-3.392,9.631,0.341,13.176l43.833,41.626l-7.735,7.736L514.396,100.443c-1.303-1.301-2.959-2.188-4.764-2.549
				l-34.538-6.907l-16.627-18.334c-3.459-3.814-9.355-4.103-13.166-0.644c-3.813,3.457-4.101,9.351-0.644,13.166
				c0,0,19.165,20.971,19.802,21.39l6.083,30.417c0.36,1.804,1.248,3.461,2.549,4.763l148.512,148.514
				c5.452,5.45,12.611,8.175,19.772,8.175c7.16,0,14.32-2.725,19.771-8.175c0,0,0,0,0.001,0l1.757-1.758
				c10.9-10.902,10.9-28.643,0-39.543l-1.318-1.318l14.5-14.5C679.74,229.484,679.66,223.346,675.911,219.789z M488.268,130.561
				l-3.732-18.674l18.673,3.734l89.834,89.836l-14.938,14.938L488.268,130.561z M649.724,275.318l-1.756,1.757
				c-3.637,3.632-9.549,3.636-13.182,0l-43.497-43.498l14.937-14.938l43.498,43.499C653.359,265.77,653.358,271.684,649.724,275.318
				z"/>
		</g>
	</g>
</g>
</svg>
