<?xml version="1.0" encoding="utf-8"?>
<!-- Generator: Adobe Illustrator 16.0.0, SVG Export Plug-In . SVG Version: 6.00 Build 0)  -->
<!DOCTYPE svg PUBLIC "-//W3C//DTD SVG 1.1//EN" "http://www.w3.org/Graphics/SVG/1.1/DTD/svg11.dtd">
<svg version="1.1" id="Layer_1" xmlns="http://www.w3.org/2000/svg" xmlns:xlink="http://www.w3.org/1999/xlink" x="0px" y="0px"
	 width="841.889px" height="595.281px" viewBox="0 0 841.889 595.281" enable-background="new 0 0 841.889 595.281"
	 xml:space="preserve">
<path fill="#41479B" d="M708.32,492.646H133.569c-5.668,0-10.264-4.596-10.264-10.264V112.898c0-5.668,4.596-10.264,10.264-10.264
	h574.752c5.668,0,10.264,4.596,10.264,10.264v369.484C718.583,488.052,713.988,492.646,708.32,492.646z"/>
<path fill="#F5F5F5" d="M410.68,102.635h-17.828l-95.07,62.288v-62.288h-51.316v62.288l-95.07-62.288h-17.826
	c-5.668,0-10.264,4.595-10.264,10.263v8.142l81.565,53.438h-81.565v51.317h81.565l-81.565,53.44v8.141
	c0,5.668,4.596,10.264,10.264,10.264h17.828l95.07-62.288v62.288h51.317v-62.288l95.069,62.288h17.827
	c5.668,0,10.265-4.596,10.265-10.264v-8.141l-81.566-53.439h81.564v-51.317h-81.565l81.565-53.438v-8.142
	C420.944,107.23,416.348,102.635,410.68,102.635z"/>
<g>
	<polygon fill="#FF4B55" points="420.944,184.744 287.519,184.744 287.519,102.635 256.73,102.635 256.73,184.744 123.305,184.744 
		123.305,215.533 256.73,215.533 256.73,297.64 287.519,297.64 287.519,215.533 420.944,215.533 	"/>
	<path fill="#FF4B55" d="M236.202,174.479L128.196,104.37c-2.874,1.819-4.891,4.875-4.891,8.528v0.533l94.046,61.048H236.202z"/>
	<path fill="#FF4B55" d="M316.634,174.479l102.749-66.696c-1.786-3.021-4.938-5.147-8.703-5.147h-2.22l-110.677,71.844H316.634z"/>
	<path fill="#FF4B55" d="M227.332,225.797l-102.552,66.569c1.768,3.095,4.968,5.274,8.788,5.274h1.936l110.681-71.844H227.332z"/>
	<path fill="#FF4B55" d="M420.781,288.182l-96.112-62.386h-18.851l109.143,70.847C418.231,295.126,420.473,291.946,420.781,288.182z
		"/>
</g>
<g>
	<path fill="#F5F5F5" d="M275.23,353.599l7.747,25.575l24.826-9.889c2.118-0.844,4.044,1.572,2.751,3.448l-15.166,22.003
		l23.209,13.243c1.979,1.13,1.293,4.142-0.981,4.301l-26.658,1.861l4.117,26.404c0.351,2.253-2.433,3.594-3.975,1.913
		l-18.077-19.681l-18.076,19.681c-1.542,1.68-4.325,0.339-3.975-1.913l4.117-26.404l-26.658-1.861
		c-2.274-0.159-2.962-3.171-0.981-4.301l23.209-13.243l-15.166-22.003c-1.293-1.876,0.633-4.292,2.751-3.448l24.826,9.889
		l7.747-25.575C271.481,351.417,274.57,351.417,275.23,353.599z"/>
	<path fill="#F5F5F5" d="M580.552,171.759l3.784,12.493l12.127-4.83c1.033-0.411,1.976,0.768,1.343,1.686l-7.407,10.748
		l11.337,6.471c0.968,0.551,0.632,2.022-0.48,2.1l-13.021,0.909l2.011,12.897c0.172,1.101-1.188,1.755-1.942,0.935l-8.83-9.614
		l-8.83,9.614c-0.754,0.819-2.112,0.165-1.942-0.935l2.011-12.897l-13.021-0.909c-1.112-0.077-1.448-1.549-0.48-2.1l11.337-6.471
		l-7.407-10.748c-0.633-0.918,0.31-2.097,1.343-1.686l12.127,4.83l3.784-12.493C578.72,170.693,580.23,170.693,580.552,171.759z"/>
	<path fill="#F5F5F5" d="M496.17,267.65l3.784,12.492l12.127-4.829c1.033-0.412,1.975,0.768,1.343,1.685l-7.407,10.749l11.337,6.47
		c0.967,0.551,0.631,2.023-0.48,2.1l-13.021,0.909l2.01,12.897c0.173,1.102-1.188,1.756-1.941,0.936l-8.83-9.614l-8.83,9.614
		c-0.754,0.819-2.113,0.165-1.942-0.936l2.011-12.897l-13.021-0.909c-1.112-0.076-1.448-1.549-0.48-2.1l11.337-6.47l-7.407-10.749
		c-0.633-0.917,0.31-2.097,1.343-1.685l12.126,4.829l3.785-12.492C494.338,266.584,495.847,266.584,496.17,267.65z"/>
	<path fill="#F5F5F5" d="M660.385,226.595l3.784,12.493l12.126-4.83c1.034-0.411,1.976,0.768,1.343,1.685l-7.407,10.749l11.338,6.47
		c0.967,0.552,0.631,2.023-0.48,2.101l-13.021,0.909l2.01,12.896c0.172,1.102-1.188,1.756-1.94,0.936l-8.83-9.614l-8.831,9.614
		c-0.753,0.819-2.112,0.165-1.941-0.936l2.011-12.896l-13.022-0.909c-1.111-0.077-1.447-1.549-0.479-2.101l11.337-6.47
		l-7.407-10.749c-0.633-0.917,0.309-2.096,1.343-1.685l12.126,4.83l3.785-12.493C658.552,225.529,660.062,225.529,660.385,226.595z"
		/>
	<path fill="#F5F5F5" d="M580.552,390.811l3.784,12.493l12.127-4.831c1.033-0.412,1.976,0.768,1.343,1.685l-7.407,10.749
		l11.337,6.47c0.968,0.552,0.632,2.023-0.48,2.1l-13.021,0.909l2.011,12.897c0.172,1.102-1.188,1.756-1.942,0.935l-8.83-9.613
		l-8.83,9.613c-0.754,0.82-2.112,0.165-1.942-0.935l2.011-12.897l-13.021-0.909c-1.112-0.076-1.448-1.548-0.48-2.1l11.337-6.47
		l-7.407-10.749c-0.633-0.917,0.31-2.097,1.343-1.685l12.127,4.831l3.784-12.493C578.72,389.745,580.23,389.745,580.552,390.811z"/>
	<path fill="#F5F5F5" d="M609.83,290.098l-3.038,9.11l-9.603,0.075c-1.243,0.01-1.759,1.596-0.758,2.334l7.725,5.706l-2.897,9.155
		c-0.374,1.187,0.976,2.166,1.985,1.443l7.813-5.585l7.813,5.585c1.011,0.723,2.359-0.259,1.985-1.443l-2.897-9.155l7.725-5.706
		c1.001-0.739,0.485-2.324-0.758-2.334l-9.603-0.075l-3.038-9.11C611.892,288.919,610.223,288.919,609.83,290.098z"/>
</g>
</svg>
