<?xml version="1.0" encoding="utf-8"?>
<!-- Generator: Adobe Illustrator 16.0.0, SVG Export Plug-In . SVG Version: 6.00 Build 0)  -->
<!DOCTYPE svg PUBLIC "-//W3C//DTD SVG 1.1//EN" "http://www.w3.org/Graphics/SVG/1.1/DTD/svg11.dtd">
<svg version="1.1" id="Capa_1" xmlns="http://www.w3.org/2000/svg" xmlns:xlink="http://www.w3.org/1999/xlink" x="0px" y="0px"
	 width="841.889px" height="595.281px" viewBox="0 0 841.889 595.281" enable-background="new 0 0 841.889 595.281"
	 xml:space="preserve">
<g>
	<path fill="#FFFFFF" d="M156.493,169.562c20.014,11.701,49.009,17.886,83.854,17.886c49.243,0,103.782,15.388,107.166,49.171
		c2.357,23.545-24.26,45.069-66.235,53.562c-4.024,0.815-6.627,4.737-5.813,8.762c0.714,3.526,3.814,5.961,7.279,5.961
		c0.488,0,0.985-0.048,1.482-0.148c25.081-5.074,45.638-14.406,59.448-26.989c13.534-12.33,20.151-27.469,18.634-42.63
		c-1.754-17.514-14.007-33.309-34.502-44.478c-21.707-11.829-51.951-18.082-87.46-18.082c-32.21,0-58.61-5.481-76.35-15.853
		c-14.272-8.345-22.132-19.543-22.132-31.531c0-35.495,55.57-56.706,109.296-56.706c4.107,0,7.436-3.328,7.436-7.436
		c0-4.106-3.328-7.435-7.436-7.435c-36.356,0-67.66,7.423-90.528,21.466c-21.377,13.129-33.636,31.394-33.636,50.11
		C126.998,142.683,137.473,158.44,156.493,169.562z"/>
	<path fill="#FFFFFF" d="M209.54,313.025c3.7-0.698,7.555-1.317,11.458-1.838c4.07-0.544,6.928-4.284,6.385-8.354
		c-0.544-4.07-4.287-6.93-8.354-6.385c-4.165,0.557-8.285,1.218-12.247,1.966c-4.036,0.762-6.689,4.649-5.927,8.686
		c0.675,3.568,3.793,6.056,7.297,6.056C208.609,313.155,209.073,313.113,209.54,313.025z"/>
	<path fill="#FFFFFF" d="M223.065,438.81c15.278,2.204,29.92,3.305,43.906,3.305c35.771,0,67.225-7.202,93.873-21.543
		c3.616-1.945,4.97-6.455,3.024-10.069c-1.947-3.616-6.454-4.97-10.071-3.024c-34.201,18.405-77.471,23.995-128.607,16.614
		c-37.342-5.39-82.461-22.746-86.722-53.922c-2.471-18.072,11.5-35.666,37.371-47.066c3.758-1.655,5.462-6.044,3.806-9.802
		s-6.046-5.463-9.803-3.806c-32.292,14.229-49.527,37.665-46.107,62.688C128.231,405.088,166.292,430.617,223.065,438.81z"/>
	<path fill="#FFFFFF" d="M216.865,386.953c6.237,2.916,14.225,4.452,23.043,4.451c26.039-0.001,59.295-13.404,75.929-44.298
		c1.947-3.616,0.594-8.124-3.021-10.071c-3.615-1.946-8.125-0.593-10.071,3.021c-18.55,34.45-62.692,41.32-79.585,33.424
		c-5.933-2.772-4.908-5.331-4.297-6.86c1.4-3.501,5.717-6.722,12.482-9.313c3.835-1.469,5.753-5.769,4.284-9.603
		s-5.77-5.753-9.603-4.283c-10.893,4.171-17.949,10.118-20.972,17.676C200.83,371.666,205.355,381.574,216.865,386.953z"/>
	<path fill="#FFFFFF" d="M248.717,352.802c0.383,0,0.771-0.029,1.16-0.09c4.967-0.779,10.484-1.381,16.398-1.79
		c4.098-0.282,7.188-3.834,6.905-7.93c-0.282-4.097-3.817-7.192-7.93-6.905c-6.341,0.438-12.288,1.088-17.678,1.933
		c-4.057,0.636-6.831,4.439-6.194,8.497C241.955,350.185,245.118,352.802,248.717,352.802z"/>
	<path fill="#FFFFFF" d="M711.234,409.369c-3.979-0.995-8.021,1.425-9.017,5.409c-2.6,10.398-7.011,20.675-13.11,30.542
		c-2.159,3.493-1.077,8.074,2.415,10.233c1.218,0.753,2.568,1.112,3.902,1.112c2.491,0,4.926-1.252,6.332-3.526
		c6.906-11.173,11.916-22.866,14.889-34.754C717.64,414.401,715.217,410.365,711.234,409.369z"/>
	<path fill="#FFFFFF" d="M676.294,462.684c-23.465,27.162-60.283,49.755-101.015,61.983c-39.876,11.971-77.616,12.459-103.542,1.337
		c-20.756-8.902-23.414-15.793-23.596-18.343c-0.307-4.323,4.967-10.118,14.469-15.899c3.508-2.135,4.62-6.71,2.486-10.218
		c-2.135-3.508-6.705-4.62-10.218-2.485c-15.058,9.164-22.314,19.14-21.57,29.653c0.835,11.788,11.487,21.914,32.566,30.957
		c14.588,6.257,31.785,9.179,50.253,9.177c59.194-0.004,131.325-30.032,171.419-76.442c2.685-3.108,2.341-7.803-0.766-10.487
		C683.671,459.234,678.979,459.578,676.294,462.684z"/>
	<path fill="#FFFFFF" d="M510.556,454.872c-3.654,1.655-7.317,3.258-10.891,4.766c-3.784,1.597-5.556,5.957-3.961,9.739
		c1.198,2.841,3.953,4.548,6.854,4.548c0.964,0,1.944-0.188,2.887-0.587c3.69-1.557,7.474-3.212,11.245-4.92
		c3.741-1.694,5.399-6.1,3.706-9.84C518.701,454.837,514.301,453.179,510.556,454.872z"/>
	<path fill="#FFFFFF" d="M639.537,136.487l17.884-18.954c12.624,6.058,24.11,12.73,34.189,19.879c1.306,0.926,2.808,1.37,4.295,1.37
		c2.329,0,4.622-1.091,6.07-3.135c2.376-3.35,1.586-7.99-1.764-10.366c-9.61-6.815-20.39-13.201-32.112-19.065l31.971-33.88
		c5.736-6.079,5.601-15.472-0.31-21.38c-5.91-5.91-15.302-6.047-21.381-0.31l-43.682,41.221
		c-85.838-31.729-193.882-36.588-251.706-36.588c-0.234,0-0.475,0-0.707,0c-4.106,0.002-7.433,3.333-7.43,7.44
		c0.003,4.105,3.331,7.43,7.436,7.43c0.001,0,0.002,0,0.005,0c55.056-0.063,157.428,4.354,240.275,33.162l-19.719,18.608
		c-35.336-11.791-108.39-30.598-224.35-35.19c-4.097-0.157-7.561,3.032-7.724,7.135c-0.162,4.103,3.032,7.561,7.136,7.723
		c106.359,4.214,175.704,20.463,212.598,31.978l-54.335,51.273c-54.782-24.455-134.656-32.194-199.196-38.442
		c-47.553-4.604-96.725-9.363-104.953-19.557c-0.592-0.732-0.55-1.083-0.514-1.393c1.97-16.938,36.05-26.601,91.169-25.841
		c4.093,0.019,7.479-3.226,7.536-7.333c0.057-4.105-3.227-7.479-7.332-7.536c-46.273-0.637-102.262,5.613-106.144,38.992
		c-0.523,4.489,0.761,8.795,3.715,12.451c11.586,14.352,49.347,18.651,115.09,25.018c61.202,5.925,136.443,13.211,188.845,34.761
		l-35.047,33.072c-14.141-9.354-32.101-17.617-53.516-24.603c-3.904-1.273-8.101,0.86-9.375,4.763
		c-1.273,3.904,0.859,8.102,4.762,9.375c18.676,6.092,34.428,13.13,46.987,20.978l-37.68,35.556l-7.968,1.819
		c-24.724,5.646-40.806,28.857-37.41,53.989c2.143,15.858-7.268,31.193-22.376,36.465l-9.296,3.242
		c-3.093,1.079-5.115,4.056-4.979,7.329c0.135,3.272,2.396,6.07,5.567,6.891c0.733,0.189,9.507,2.383,22.003,2.383
		c13.38,0,31.028-2.517,47.626-12.698c20.807-12.765,34.882-34.403,41.896-64.291l34.071-36.106
		c5.098,15.708-0.053,33.046-15.592,52.684c-2.548,3.22-2.003,7.896,1.217,10.444c1.365,1.08,2.993,1.604,4.609,1.604
		c2.194,0,4.368-0.968,5.835-2.821c21.044-26.593,26.114-51.386,15.139-73.787l41.733-44.226
		c29.387,24.796,33.211,58.696,11.706,103.418c-1.779,3.702-0.224,8.144,3.478,9.923c1.04,0.5,2.137,0.735,3.217,0.735
		c2.768,0,5.426-1.553,6.705-4.215c24.45-50.849,19.425-91.408-14.88-120.7l55.953-59.295
		c53.751,24.137,78.166,57.034,74.591,100.46c-4.008,48.678-25.275,90.226-65.013,127.017
		c-34.819,32.236-76.887,53.956-104.725,68.328c-3.648,1.884-5.08,6.368-3.196,10.017c1.321,2.558,3.919,4.025,6.613,4.025
		c1.149,0,2.314-0.268,3.405-0.83c58.641-30.275,167.795-86.629,177.736-207.337C722.182,201.111,695.716,163.112,639.537,136.487z
		 M688.586,61.462c0.189-0.178,0.479-0.173,0.661,0.01s0.187,0.472,0.01,0.66L486.402,277.102l-12.784-12.784L688.586,61.462z
		 M462.797,274.527l13.394,13.394l-7.521,7.972l-13.844-13.843L462.797,274.527z M426.043,361.761
		c-10.769,6.642-22.306,9.341-32.25,10.196c11.897-10.529,18.313-26.592,16.091-43.043c-2.36-17.456,8.812-33.578,25.984-37.501
		l5.937-1.356l18.819,18.82C454.428,333.632,442.815,351.422,426.043,361.761z"/>
	<path fill="#FFFFFF" d="M561.547,367.383c3.393-3.911,6.624-7.956,9.609-12.022c2.429-3.311,1.717-7.963-1.594-10.393
		c-3.308-2.429-7.964-1.717-10.393,1.594c-2.749,3.743-5.729,7.471-8.856,11.077c-2.689,3.103-2.357,7.797,0.745,10.488
		c1.407,1.221,3.142,1.818,4.868,1.818C558.008,369.947,560.076,369.078,561.547,367.383z"/>
	<path fill="#FFFFFF" d="M542.876,376.347c-2.729-3.068-7.427-3.343-10.497-0.615c-62.82,55.87-166.497,81.103-242.408,92.433
		c-82.843,12.363-151.545,11.288-152.227,11.276c-4.12-0.079-7.493,3.194-7.568,7.3c-0.074,4.105,3.193,7.493,7.299,7.568
		c0.106,0.001,1.849,0.029,5.031,0.029c17.479,0,78.339-0.841,149.424-11.433c113.438-16.901,197.663-49.223,250.333-96.063
		C545.33,384.115,545.606,379.416,542.876,376.347z"/>
	<path fill="#FFFFFF" d="M405.954,211.44c0.581,0.139,1.162,0.205,1.735,0.205c3.361,0,6.409-2.295,7.226-5.707
		c0.956-3.993-1.507-8.006-5.502-8.962c-7.458-1.784-12.1-2.619-12.293-2.654c-4.045-0.727-7.902,1.965-8.627,6.006
		c-0.727,4.041,1.964,7.904,6.003,8.632C394.538,208.968,398.951,209.765,405.954,211.44z"/>
	<path fill="#FFFFFF" d="M618.336,339.979c1.36,1.062,2.972,1.576,4.572,1.576c2.21,0,4.397-0.981,5.864-2.857
		c20.313-26.001,42.251-65.475,31.399-105.865c-1.064-3.965-5.146-6.316-9.108-5.252c-3.966,1.065-6.317,5.144-5.252,9.109
		c7.33,27.283-2.614,59.392-28.756,92.854C614.527,332.778,615.1,337.452,618.336,339.979z"/>
	<path fill="#FFFFFF" d="M636.964,217.037c1.431,2.164,3.798,3.337,6.211,3.337c1.407,0,2.829-0.398,4.09-1.231
		c3.428-2.263,4.369-6.875,2.106-10.302c-5.977-9.048-11.673-13.805-12.303-14.317c-3.173-2.585-7.826-2.104-10.424,1.057
		c-2.599,3.162-2.141,7.841,1.011,10.454C627.701,206.072,632.227,209.862,636.964,217.037z"/>
	<path fill="#FFFFFF" d="M339.025,71.191c0.154,0,0.31-0.006,0.465-0.015c0.053-0.003,5.36-0.327,14.579-0.608
		c4.104-0.126,7.33-3.555,7.205-7.658c-0.124-4.104-3.548-7.334-7.659-7.205c-9.478,0.289-14.818,0.616-15.042,0.63
		c-4.099,0.253-7.214,3.781-6.962,7.878C331.855,68.156,335.128,71.191,339.025,71.191z"/>
</g>
</svg>
