<?xml version="1.0" encoding="utf-8"?>
<!-- Generator: Adobe Illustrator 16.0.0, SVG Export Plug-In . SVG Version: 6.00 Build 0)  -->
<!DOCTYPE svg PUBLIC "-//W3C//DTD SVG 1.1//EN" "http://www.w3.org/Graphics/SVG/1.1/DTD/svg11.dtd">
<svg version="1.1" id="Capa_1" xmlns="http://www.w3.org/2000/svg" xmlns:xlink="http://www.w3.org/1999/xlink" x="0px" y="0px"
	 width="841.889px" height="595.281px" viewBox="0 0 841.889 595.281" enable-background="new 0 0 841.889 595.281"
	 xml:space="preserve">
<g>
	<g>
		<path fill="#FFFFFF" d="M210.824,428.238c-3.405-3.405-8.927-3.405-12.331,0l-29.648,29.649c-3.405,3.405-3.405,8.927,0,12.331
			c3.405,3.405,8.927,3.405,12.331,0l29.648-29.649C214.23,437.166,214.23,431.644,210.824,428.238z"/>
	</g>
</g>
<g>
	<g>
		<path fill="#FFFFFF" d="M239.668,457.082c-3.406-3.405-8.928-3.405-12.331,0l-29.649,29.648c-3.405,3.405-3.405,8.927,0,12.331
			c3.405,3.405,8.927,3.405,12.331,0l29.649-29.648C243.073,466.009,243.073,460.487,239.668,457.082z"/>
	</g>
</g>
<g>
	<g>
		<path fill="#FFFFFF" d="M297.353,514.766c-3.404-3.405-8.926-3.405-12.331,0l-29.648,29.649c-3.406,3.405-3.406,8.927,0,12.331
			c3.405,3.405,8.927,3.405,12.331,0l29.648-29.649C300.758,523.693,300.758,518.172,297.353,514.766z"/>
	</g>
</g>
<g>
	<g>
		<path fill="#FFFFFF" d="M268.51,485.925c-3.405-3.405-8.927-3.405-12.331,0l-29.649,29.649c-3.405,3.405-3.405,8.927,0,12.331
			c3.405,3.405,8.927,3.405,12.331,0l29.649-29.649C271.915,494.851,271.915,489.33,268.51,485.925z"/>
	</g>
</g>
<g>
	<g>
		<path fill="#FFFFFF" d="M696.857,0.702c-37.886,11.074-146.543,42.836-182.487,53.343c-1.406,0.41-2.685,1.169-3.72,2.204
			L388.698,178.201l-54.488,4.586c-77.418,6.516-150.308,40.359-205.243,95.295c-11.563,11.563-4.341,31.354,11.931,32.773
			l105.895,9.251l-10.971,10.972c-6.809,6.806-6.812,17.829,0,24.64l10.591,10.591l-21.478,21.478
			c-8.412,8.411-8.412,22.099,0,30.51c9.193,9.193,66.115,66.115,75.357,75.357c8.41,8.411,22.1,8.411,30.509,0l21.477-21.477
			l10.022,10.021c7.115,7.117,18.683,7.093,25.776,0l10.402-10.403l9.251,105.894c0.657,7.533,5.48,13.819,12.587,16.405
			c7.085,2.58,14.827,0.885,20.186-4.475c33.805-33.804,59.365-73.702,75.976-118.589c1.672-4.517-0.635-9.532-5.151-11.204
			c-4.518-1.674-9.532,0.633-11.204,5.151c-15.731,42.51-39.939,80.296-71.952,112.309c-1.092,1.095-2.933,0.435-3.067-1.117
			l-10.523-120.477l106.723-106.723c-3.541,43.234-4.502,54.51-9.445,76.422c-1.061,4.698,1.89,9.365,6.588,10.424
			c4.695,1.06,9.365-1.889,10.424-6.587c6.037-26.754,6.497-39.469,11.515-99.341l121.952-121.952
			c1.036-1.035,1.793-2.314,2.205-3.72l24.216-82.843c0-0.001,0.001-0.002,0.001-0.002l29.127-99.645
			C721.64,8.877,709.668-3.05,696.857,0.702z M142.416,293.482c-1.542-0.134-2.214-1.97-1.116-3.067
			c52.026-52.026,121.057-84.077,194.373-90.249l33.914-2.854L262.894,304.005L142.416,293.482z M266.185,325.378l47.5,47.5
			l-18.021,18.019c-18.817-18.817-43.285-43.263-47.512-47.487L266.185,325.378z M262.186,424.376
			c-1.106,1.107-2.071,2.317-2.906,3.6l-22.014-22.011c-1.584-1.585-1.584-4.262,0-5.846l21.478-21.479
			c11.123,11.124,16.57,16.571,24.59,24.591L262.186,424.376z M282.305,443.641c-2.031,2.03-5.321,2.038-7.36,0
			c-2.028-2.029-2.028-5.33,0-7.359c7.077-7.077,164.344-164.344,173.815-173.816c2.03-2.029,5.331-2.028,7.36,0
			c2.029,2.031,2.037,5.323,0,7.359L339.542,386.404C333.266,392.679,287.719,438.227,282.305,443.641z M318.468,481.321
			c-1.041,1.039-2.277,1.194-2.923,1.194s-1.883-0.155-2.923-1.194l-22.013-22.014c1.282-0.835,2.491-1.8,3.6-2.907l21.146-21.146
			l24.59,24.591L318.468,481.321z M375.742,469.866c-0.019,0.019-0.042,0.024-0.062,0.041c-0.311,0.253-0.763,0.246-1.05-0.041
			c-5.202-5.203-41.477-41.479-46.942-46.944l18.019-18.02l47.499,47.5L375.742,469.866z M648.428,197.182
			C636.892,208.719,415.77,429.841,405.541,440.07l-47.499-47.501l110.837-110.837c7.988-7.988,9.522-21.648-0.854-32.024
			c-8.613-8.612-22.555-8.614-31.171,0L326.017,360.547l-47.5-47.501c9.684-9.684,231.582-231.582,242.887-242.887l75.743-22.142
			l73.419,73.421L648.428,197.182z M676.146,102.352l-59.913-59.913l84.659-24.747L676.146,102.352z"/>
	</g>
</g>
<g>
	<g>
		<path fill="#FFFFFF" d="M567.335,151.254c-4.987-4.983-10.761-8.978-17.164-11.869c-4.39-1.979-9.554-0.03-11.536,4.359
			c-1.982,4.389-0.03,9.554,4.358,11.535c25.919,11.706,32.043,45.805,12.008,65.838c-15.861,15.861-41.669,15.861-57.53,0
			c-20.046-20.046-13.948-54.118,12.008-65.838c4.39-1.981,6.34-7.146,4.359-11.535c-1.982-4.39-7.148-6.34-11.536-4.359
			c-37.027,16.723-45.851,65.376-17.161,94.064c11.33,11.33,26.215,16.996,41.098,16.996
			C577.855,250.445,603.851,187.766,567.335,151.254z"/>
	</g>
</g>
</svg>
