<?xml version="1.0" encoding="utf-8"?>
<!-- Generator: Adobe Illustrator 16.0.0, SVG Export Plug-In . SVG Version: 6.00 Build 0)  -->
<!DOCTYPE svg PUBLIC "-//W3C//DTD SVG 1.1//EN" "http://www.w3.org/Graphics/SVG/1.1/DTD/svg11.dtd">
<svg version="1.1" id="Capa_1" xmlns="http://www.w3.org/2000/svg" xmlns:xlink="http://www.w3.org/1999/xlink" x="0px" y="0px"
	 width="841.889px" height="595.281px" viewBox="0 0 841.889 595.281" enable-background="new 0 0 841.889 595.281"
	 xml:space="preserve">
<g>
	<path fill="#FFFFFF" d="M336.904,137.198c0,24.01,8.809,48.323,24.168,66.706c16.236,19.433,37.478,30.135,59.811,30.135
		c22.332,0,43.548-10.697,59.743-30.121c15.309-18.36,24.089-42.664,24.089-66.679v-20.342
		c11.317-48.617,7.108-88.536,3.255-100.331c-1.345-4.117-5.287-6.646-9.419-6.386c-0.648-0.046-1.313-0.03-1.982,0.065
		c-12.193,1.728-27.456-1.313-43.619-4.536c-26.763-5.333-56.962-11.345-80.638,4.446c-26.588,0.053-45.875,21.108-45.875,50.108
		c0,20.976,8.792,59.221,10.468,66.318V137.198z M466.337,192.005c-12.599,15.109-28.74,23.43-45.455,23.43
		c-16.724,0-32.895-8.33-45.534-23.459c-12.609-15.091-19.841-35.058-19.841-54.777v-8.07c0-14.183,9.105-34.447,14.575-44.838
		c34.604-3.751,62.196,0.215,79.506,4.34c13.977,3.332,23.612,7.264,28.032,9.269l8.488,19.857v19.483
		C486.112,156.971,478.904,176.932,466.337,192.005z M372.41,28.757c0.48,0,0.949-0.048,1.409-0.117
		c2.401,0.375,4.945-0.178,7.038-1.757c17.384-13.107,43.348-7.933,68.454-2.928c13.327,2.656,27.01,5.383,39.69,5.383
		c0.927,0,1.848-0.018,2.764-0.047c1.651,10.758,2.775,30.69-0.219,55.36c-0.667-0.703-1.436-1.313-2.301-1.782
		c-1.975-1.072-49.11-26.075-125.51-16.587c-3.01,0.175-5.88,1.804-7.511,4.604c-0.348,0.598-4.143,7.176-8.277,16.461
		c-1.641-9.868-2.91-19.834-2.91-27.084C345.039,44.582,353.502,28.757,372.41,28.757z"/>
	<path fill="#FFFFFF" d="M287.184,334.819H554.4c13.63,0,24.718-10.183,24.718-22.701v-12.651c0-21.98-14.023-48.132-40.824-55.586
		c-0.198-0.055-0.398-0.104-0.601-0.146l-39.323-8.164l-10.086-15.181c-0.104-0.157-0.213-0.311-0.326-0.461
		c-2.347-3.106-5.914-5.158-9.787-5.63c-3.873-0.47-7.836,0.67-10.863,3.129c-0.061,0.049-0.12,0.098-0.18,0.149l-46.334,39.592
		l-46.335-39.592c-0.058-0.05-0.118-0.101-0.178-0.149c-3.027-2.459-6.983-3.602-10.863-3.129c-3.873,0.472-7.44,2.522-9.788,5.63
		c-0.112,0.15-0.222,0.304-0.325,0.461l-10.086,15.181l-39.323,8.164c-0.202,0.042-0.402,0.091-0.602,0.146
		c-26.802,7.454-40.824,33.605-40.824,55.586v12.651C262.466,324.635,273.555,334.819,287.184,334.819z M411.642,291.967
		l9.188-9.336l9.418,9.469v24.116h-18.605V291.967z M560.514,299.467v12.651c0,1.938-2.511,4.098-6.114,4.098H448.851v-9.302
		c0.151,0,0.304-0.004,0.454-0.011c2.631-0.129,5.084-1.366,6.75-3.405l40.314-49.342l37.22,7.728
		C551.267,266.958,560.514,284.59,560.514,299.467z M475.553,234.847l5.636,8.483l-33.018,40.408l-13.709-13.78L475.553,234.847z
		 M366.031,234.847l41.132,35.147l-13.508,13.727l-33.246-40.41L366.031,234.847z M281.07,299.467
		c0-14.877,9.247-32.508,26.925-37.582l37.242-7.732l40.618,49.37c1.674,2.035,4.136,3.266,6.769,3.384
		c0.139,0.006,0.276,0.009,0.414,0.009v9.302H287.183c-3.604,0-6.114-2.159-6.114-4.098L281.07,299.467L281.07,299.467z"/>
	<path fill="#FFFFFF" d="M597.687,437.144v55.813c0,5.137,4.165,9.302,9.302,9.302s9.302-4.165,9.302-9.302v-55.813
		c0-25.646-20.865-46.511-46.511-46.511H430.246v-27.906c0-5.138-4.165-9.302-9.303-9.302c-5.137,0-9.302,4.164-9.302,9.302v27.906
		H272.11c-25.646,0-46.511,20.864-46.511,46.511v55.813c0,5.137,4.165,9.302,9.302,9.302s9.302-4.165,9.302-9.302v-55.813
		c0-15.388,12.52-27.907,27.907-27.907h139.532v83.72c0,5.137,4.165,9.302,9.302,9.302c5.138,0,9.303-4.165,9.303-9.302v-83.72
		h139.532C585.167,409.237,597.687,421.756,597.687,437.144z"/>
	<path fill="#FFFFFF" d="M420.944,520.864c-20.518,0-37.208,16.691-37.208,37.208c0,20.518,16.69,37.209,37.208,37.209
		s37.209-16.691,37.209-37.209S441.461,520.864,420.944,520.864z M420.944,576.677c-10.259,0-18.604-8.346-18.604-18.604
		s8.346-18.604,18.604-18.604s18.605,8.346,18.605,18.604S431.202,576.677,420.944,576.677z"/>
	<path fill="#FFFFFF" d="M606.989,520.864c-20.518,0-37.209,16.691-37.209,37.208c0,20.518,16.691,37.209,37.209,37.209
		c20.517,0,37.207-16.691,37.207-37.209S627.505,520.864,606.989,520.864z M606.989,576.677c-10.259,0-18.604-8.346-18.604-18.604
		s8.346-18.604,18.604-18.604s18.604,8.346,18.604,18.604S617.246,576.677,606.989,576.677z"/>
	<path fill="#FFFFFF" d="M234.901,520.864c-20.518,0-37.208,16.691-37.208,37.208c0,20.518,16.69,37.209,37.208,37.209
		s37.209-16.691,37.209-37.209S255.418,520.864,234.901,520.864z M234.901,576.677c-10.259,0-18.604-8.346-18.604-18.604
		s8.346-18.604,18.604-18.604s18.605,8.346,18.605,18.604S245.159,576.677,234.901,576.677z"/>
</g>
</svg>
