<?xml version="1.0" encoding="utf-8"?>
<!-- Generator: Adobe Illustrator 16.0.0, SVG Export Plug-In . SVG Version: 6.00 Build 0)  -->
<!DOCTYPE svg PUBLIC "-//W3C//DTD SVG 1.1//EN" "http://www.w3.org/Graphics/SVG/1.1/DTD/svg11.dtd">
<svg version="1.1" id="Layer_1" xmlns="http://www.w3.org/2000/svg" xmlns:xlink="http://www.w3.org/1999/xlink" x="0px" y="0px"
	 width="841.889px" height="595.281px" viewBox="0 0 841.889 595.281" enable-background="new 0 0 841.889 595.281"
	 xml:space="preserve">
<g>
	<g>
		<g>
			<path fill="#FFFFFF" d="M435.858,268.435h-19.884c-5.146,0-9.32,4.172-9.32,9.321s4.173,9.321,9.32,9.321h0.621v10.563
				c0,5.148,4.173,9.321,9.321,9.321s9.321-4.172,9.321-9.321v-10.564h0.62c5.147,0,9.321-4.171,9.321-9.32
				S441.005,268.435,435.858,268.435z"/>
		</g>
	</g>
	<g>
		<g>
			<path fill="#FFFFFF" d="M263.992,384.014c-1.716-4.854-7.043-7.399-11.894-5.683c-4.854,1.716-7.397,7.04-5.682,11.894
				c0.773,2.186,1.165,4.485,1.165,6.835c0,11.307-9.199,20.506-20.506,20.506s-20.507-9.199-20.507-20.506
				c0-2.35,0.392-4.649,1.165-6.835c1.715-4.854-0.829-10.178-5.684-11.894c-4.851-1.715-10.178,0.829-11.893,5.683
				c-1.479,4.186-2.229,8.573-2.229,13.046c0,21.586,17.562,39.146,39.146,39.146s39.146-17.562,39.146-39.146
				C266.222,392.589,265.471,388.2,263.992,384.014z"/>
		</g>
	</g>
	<g>
		<g>
			<path fill="#FFFFFF" d="M227.075,357.914c-5.147,0-9.321,4.172-9.321,9.321v19.884c0,5.147,4.173,9.32,9.321,9.32
				s9.321-4.172,9.321-9.32v-19.884C236.395,362.087,232.222,357.914,227.075,357.914z"/>
		</g>
	</g>
	<g>
		<g>
			<path fill="#FFFFFF" d="M286.728,169.015H167.423c-5.147,0-9.321,4.172-9.321,9.321v29.825c0,5.148,4.173,9.321,9.321,9.321
				h119.305c5.147,0,9.321-4.172,9.321-9.321v-29.825C296.047,173.187,291.875,169.015,286.728,169.015z M277.406,198.842H176.743
				v-11.186h100.663V198.842z"/>
		</g>
	</g>
	<g>
		<g>
			<path fill="#FFFFFF" d="M276.784,227.425c-5.146,0-9.32,4.172-9.32,9.321v1.243c0,5.148,4.172,9.321,9.32,9.321
				s9.321-4.172,9.321-9.321v-1.243C286.106,231.596,281.933,227.425,276.784,227.425z"/>
		</g>
	</g>
	<g>
		<g>
			<path fill="#FFFFFF" d="M276.784,257.251c-5.146,0-9.32,4.172-9.32,9.321v1.242c0,5.148,4.172,9.321,9.32,9.321
				s9.321-4.172,9.321-9.321v-1.242C286.106,261.423,281.933,257.251,276.784,257.251z"/>
		</g>
	</g>
	<g>
		<g>
			<path fill="#FFFFFF" d="M614.814,157.83h79.536c10.622,0,19.264-8.642,19.264-19.264V19.262C713.614,8.641,704.972,0,694.352,0
				h-79.536c-10.622,0-19.264,8.642-19.264,19.263v50.332H535.28c-5.147,0-9.321,4.172-9.321,9.321V288.32h-36.673
				c6.413-24.329,6.593-46.507,5.58-60.926c-0.507-7.216-9.09-11.155-14.89-6.804c-9.372,7.028-19.206,8.078-24.233,8.078
				c-11.717,0-20.211-5.061-24.232-8.076c-3.315-2.488-7.871-2.488-11.187,0c-4.021,3.016-12.517,8.076-24.233,8.076
				c-5.028,0-14.861-1.05-24.232-8.078c-5.801-4.351-14.385-0.415-14.89,6.804c-1.011,14.42-0.831,36.599,5.581,60.926h-36.675
				V148.51c0-16.104-13.101-29.204-29.205-29.204H157.481c-16.104,0-29.204,13.101-29.204,29.204v198.842
				c0,5.148,4.173,9.321,9.32,9.321s9.321-4.172,9.321-9.321V148.51c0-5.825,4.739-10.563,10.563-10.563h139.189
				c5.824,0,10.563,4.738,10.563,10.563v298.262c0,5.824-4.739,10.563-10.563,10.563h-139.19c-5.824,0-10.563-4.739-10.563-10.563
				V397.06c0-5.148-4.173-9.321-9.321-9.321c-5.146,0-9.321,4.172-9.321,9.321v49.711c0,16.104,13.102,29.204,29.205,29.204h139.188
				c16.104,0,29.205-13.101,29.205-29.204v-139.81h42.757c4.741,12.041,11.213,24.253,19.987,36.019
				c8.892,11.924,19.557,22.591,31.7,31.709c3.28,2.461,7.913,2.461,11.192,0c12.144-9.117,22.809-19.785,31.7-31.709
				c8.775-11.765,15.245-23.979,19.987-36.019h42.757v209.404c0,5.148,4.173,9.321,9.321,9.321h60.273v50.331
				c0,10.622,8.641,19.264,19.263,19.264h79.536c10.622,0,19.263-8.642,19.263-19.264V456.713c0-10.622-8.641-19.263-19.263-19.263
				h-79.536c-10.622,0-19.263,8.641-19.263,19.263v50.331h-50.953V306.962h50.953v50.331c0,10.622,8.641,19.263,19.263,19.263
				h79.536c10.622,0,19.263-8.641,19.263-19.263V237.988c0-10.622-8.641-19.264-19.263-19.264h-79.536
				c-10.622,0-19.263,8.642-19.263,19.264v50.331h-50.953V88.235h50.953v50.331C595.552,149.188,604.194,157.83,614.814,157.83z
				 M614.194,19.262c0-0.342,0.277-0.62,0.62-0.62h79.536c0.344,0,0.621,0.28,0.621,0.62v119.306c0,0.342-0.277,0.62-0.621,0.62
				h-79.536c-0.343,0-0.62-0.278-0.62-0.62V19.262z M448.271,331.838c-6.435,8.626-13.934,16.516-22.354,23.521
				c-8.421-7.005-15.922-14.894-22.354-23.521c-22.723-30.468-28.037-64.612-28.398-88.377c8.52,3.211,16.185,3.85,20.926,3.85
				c12.851,0,23.051-4.167,29.826-8.108c6.775,3.943,16.975,8.108,29.826,8.108c4.741,0,12.406-0.639,20.927-3.85
				C476.309,267.222,470.993,301.369,448.271,331.838z M614.194,456.713c0-0.342,0.277-0.621,0.62-0.621h79.536
				c0.344,0,0.621,0.279,0.621,0.621v119.305c0,0.342-0.277,0.621-0.621,0.621h-79.536c-0.343,0-0.62-0.28-0.62-0.621V456.713z
				 M614.194,237.988c0-0.342,0.277-0.621,0.62-0.621h79.536c0.344,0,0.621,0.279,0.621,0.621v119.305
				c0,0.342-0.277,0.621-0.621,0.621h-79.536c-0.343,0-0.62-0.28-0.62-0.621V237.988z"/>
		</g>
	</g>
	<g>
		<g>
			<path fill="#FFFFFF" d="M674.467,39.768h-39.768c-5.147,0-9.321,4.172-9.321,9.321c0,5.148,4.173,9.321,9.321,9.321h39.769
				c5.146,0,9.32-4.172,9.32-9.321C683.787,43.94,679.615,39.768,674.467,39.768z"/>
		</g>
	</g>
	<g>
		<g>
			<path fill="#FFFFFF" d="M675.709,89.478h-1.242c-5.147,0-9.321,4.172-9.321,9.321c0,5.147,4.173,9.32,9.321,9.32h1.242
				c5.147,0,9.321-4.171,9.321-9.32C685.031,93.651,680.858,89.478,675.709,89.478z"/>
		</g>
	</g>
	<g>
		<g>
			<path fill="#FFFFFF" d="M635.942,89.478h-1.242c-5.147,0-9.321,4.172-9.321,9.321c0,5.147,4.173,9.32,9.321,9.32h1.242
				c5.147,0,9.321-4.171,9.321-9.32C645.262,93.651,641.089,89.478,635.942,89.478z"/>
		</g>
	</g>
	<g>
		<g>
			<path fill="#FFFFFF" d="M674.467,258.494h-39.768c-5.147,0-9.321,4.171-9.321,9.32s4.173,9.321,9.321,9.321h39.769
				c5.146,0,9.32-4.172,9.32-9.321S679.615,258.494,674.467,258.494z"/>
		</g>
	</g>
	<g>
		<g>
			<path fill="#FFFFFF" d="M675.709,308.204h-1.242c-5.147,0-9.321,4.172-9.321,9.321c0,5.148,4.173,9.321,9.321,9.321h1.242
				c5.147,0,9.321-4.172,9.321-9.321S680.858,308.204,675.709,308.204z"/>
		</g>
	</g>
	<g>
		<g>
			<path fill="#FFFFFF" d="M635.942,308.204h-1.242c-5.147,0-9.321,4.172-9.321,9.321c0,5.148,4.173,9.321,9.321,9.321h1.242
				c5.147,0,9.321-4.172,9.321-9.321C645.262,312.376,641.089,308.204,635.942,308.204z"/>
		</g>
	</g>
	<g>
		<g>
			<path fill="#FFFFFF" d="M674.467,477.219h-39.768c-5.147,0-9.321,4.172-9.321,9.321c0,5.148,4.173,9.32,9.321,9.32h39.769
				c5.146,0,9.32-4.171,9.32-9.32C683.787,481.39,679.615,477.219,674.467,477.219z"/>
		</g>
	</g>
	<g>
		<g>
			<path fill="#FFFFFF" d="M675.709,526.929h-1.242c-5.147,0-9.321,4.171-9.321,9.32c0,5.148,4.173,9.321,9.321,9.321h1.242
				c5.147,0,9.321-4.172,9.321-9.321S680.858,526.929,675.709,526.929z"/>
		</g>
	</g>
	<g>
		<g>
			<path fill="#FFFFFF" d="M635.942,526.929h-1.242c-5.147,0-9.321,4.171-9.321,9.32c0,5.148,4.173,9.321,9.321,9.321h1.242
				c5.147,0,9.321-4.172,9.321-9.321C645.262,531.1,641.089,526.929,635.942,526.929z"/>
		</g>
	</g>
	<g>
		<g>
			<path fill="#FFFFFF" d="M509.836,134.179c-22.416-22.414-52.219-34.76-83.92-34.76s-61.506,12.346-83.922,34.762
				c-3.64,3.642-3.64,9.542,0,13.182c3.641,3.64,9.542,3.64,13.183,0c18.895-18.896,44.018-29.301,70.74-29.301
				c26.722,0,51.846,10.405,70.741,29.301c3.79,3.789,10.191,3.536,13.676-0.536C513.457,143.178,513.231,137.575,509.836,134.179z"
				/>
		</g>
	</g>
	<g>
		<g>
			<path fill="#FFFFFF" d="M481.717,162.302c-14.904-14.905-34.722-23.114-55.801-23.114s-40.896,8.209-55.801,23.115
				c-3.64,3.641-3.64,9.542,0,13.181c3.641,3.64,9.542,3.641,13.182-0.001c11.383-11.384,26.52-17.653,42.62-17.653
				s31.237,6.27,42.621,17.653c1.819,1.821,4.205,2.73,6.59,2.73C483.276,178.214,487.459,168.046,481.717,162.302z"/>
		</g>
	</g>
	<g>
		<g>
			<path fill="#FFFFFF" d="M453.596,190.423c-7.395-7.394-17.226-11.467-27.683-11.467c-10.456,0-20.285,4.072-27.679,11.467
				c-3.641,3.64-3.641,9.542,0,13.181c3.642,3.641,9.542,3.642,13.182,0.001c3.874-3.873,9.022-6.006,14.5-6.006
				s10.627,2.133,14.499,6.006c3.793,3.789,10.191,3.536,13.677-0.536C457.215,199.422,456.989,193.815,453.596,190.423z"/>
		</g>
	</g>
</g>
</svg>
