<?xml version="1.0" encoding="utf-8"?>
<!-- Generator: Adobe Illustrator 16.0.0, SVG Export Plug-In . SVG Version: 6.00 Build 0)  -->
<!DOCTYPE svg PUBLIC "-//W3C//DTD SVG 1.1//EN" "http://www.w3.org/Graphics/SVG/1.1/DTD/svg11.dtd">
<svg version="1.1" id="Layer_1" xmlns="http://www.w3.org/2000/svg" xmlns:xlink="http://www.w3.org/1999/xlink" x="0px" y="0px"
	 width="841.889px" height="595.281px" viewBox="0 0 841.889 595.281" enable-background="new 0 0 841.889 595.281"
	 xml:space="preserve">
<g>
	<g>
		<g>
			<path fill="#FFFFFF" d="M681.798,575.216h-16.722V50.164c0-5.542-4.492-10.032-10.032-10.032H467.765
				c-5.541,0-10.032,4.49-10.032,10.032v43.476h-20.065V50.164c0-5.542-4.493-10.032-10.033-10.032h-43.476V10.033
				C384.158,4.49,379.666,0,374.126,0s-10.033,4.49-10.033,10.033v30.099h-43.475c-5.542,0-10.033,4.49-10.033,10.032v43.476
				h-30.099c-5.541,0-10.032,4.49-10.032,10.032v83.606h-83.607c-5.541,0-10.032,4.49-10.032,10.033v377.903h-16.724
				c-5.541,0-10.032,4.49-10.032,10.032s4.492,10.034,10.032,10.034h521.707c5.541,0,10.032-4.49,10.032-10.033
				C691.83,579.706,687.338,575.216,681.798,575.216z M330.65,60.197h86.95v33.442h-86.95V60.197z M297.206,575.216h-6.688v-16.722
				c0-5.542-4.492-10.032-10.032-10.032s-10.033,4.49-10.033,10.032v16.722h-6.688v-33.442h33.442V575.216z M364.092,317.706v17.26
				v240.25h-46.82V531.74c0-5.542-4.492-10.032-10.032-10.032h-53.508c-5.541,0-10.033,4.49-10.033,10.032v43.476h-46.819V207.344
				h167.213V317.706L364.092,317.706z M374.124,187.28h-83.606v-73.574h167.213v193.967h-73.572V274.23h30.099
				c5.541,0,10.032-4.49,10.032-10.033c0-5.542-4.492-10.032-10.032-10.032h-30.099v-33.442h30.099
				c5.541,0,10.032-4.49,10.032-10.033c0-5.542-4.492-10.032-10.032-10.032h-30.099v-3.344
				C384.158,191.77,379.666,187.28,374.124,187.28z M551.371,575.216H384.158v-240.25v-7.227h167.213V575.216z M645.011,575.216
				h-73.574v-257.51v-13.378c0-5.543-4.493-10.032-10.033-10.032s-10.032,4.489-10.032,10.032v3.344h-20.065v-3.344
				c0-5.543-4.492-10.032-10.032-10.032s-10.032,4.489-10.032,10.032v3.344h-33.443V103.673V60.197h167.214L645.011,575.216
				L645.011,575.216z"/>
			<path fill="#FFFFFF" d="M427.633,555.151c5.541,0,10.033-4.492,10.033-10.032V357.841c0-5.543-4.493-10.032-10.033-10.032
				s-10.032,4.489-10.032,10.032V545.12C417.601,550.66,422.092,555.151,427.633,555.151z"/>
			<path fill="#FFFFFF" d="M467.765,555.151c5.541,0,10.032-4.492,10.032-10.032V357.841c0-5.543-4.492-10.032-10.032-10.032
				s-10.032,4.489-10.032,10.032V545.12C457.731,550.66,462.224,555.151,467.765,555.151z"/>
			<path fill="#FFFFFF" d="M507.895,555.151c5.541,0,10.033-4.492,10.033-10.032V357.841c0-5.543-4.493-10.032-10.033-10.032
				s-10.032,4.489-10.032,10.032V545.12C497.863,550.66,502.355,555.151,507.895,555.151z"/>
			<path fill="#FFFFFF" d="M521.273,127.082c5.541,0,10.032-4.49,10.032-10.032v-13.377c0-5.542-4.492-10.032-10.032-10.032
				s-10.032,4.49-10.032,10.032v13.378C511.24,122.592,515.732,127.082,521.273,127.082z"/>
			<path fill="#FFFFFF" d="M561.404,127.082c5.542,0,10.033-4.49,10.033-10.032v-13.377c0-5.542-4.493-10.032-10.033-10.032
				s-10.032,4.49-10.032,10.032v13.378C551.371,122.592,555.863,127.082,561.404,127.082z"/>
			<path fill="#FFFFFF" d="M601.535,127.082c5.541,0,10.032-4.49,10.032-10.032v-13.377c0-5.542-4.492-10.032-10.032-10.032
				s-10.032,4.49-10.032,10.032v13.378C591.503,122.592,595.994,127.082,601.535,127.082z"/>
			<path fill="#FFFFFF" d="M521.273,193.968c5.541,0,10.032-4.49,10.032-10.033v-13.377c0-5.543-4.492-10.033-10.032-10.033
				s-10.032,4.49-10.032,10.033v13.377C511.24,189.477,515.732,193.968,521.273,193.968z"/>
			<path fill="#FFFFFF" d="M561.404,193.968c5.542,0,10.033-4.49,10.033-10.033v-13.377c0-5.543-4.493-10.033-10.033-10.033
				s-10.032,4.49-10.032,10.033v13.377C551.371,189.477,555.863,193.968,561.404,193.968z"/>
			<path fill="#FFFFFF" d="M601.535,193.968c5.541,0,10.032-4.49,10.032-10.033v-13.377c0-5.543-4.492-10.033-10.032-10.033
				s-10.032,4.49-10.032,10.033v13.377C591.503,189.477,595.994,193.968,601.535,193.968z"/>
			<path fill="#FFFFFF" d="M521.273,260.853c5.541,0,10.032-4.49,10.032-10.032v-13.377c0-5.543-4.492-10.033-10.032-10.033
				s-10.032,4.49-10.032,10.033v13.377C511.24,256.362,515.732,260.853,521.273,260.853z"/>
			<path fill="#FFFFFF" d="M561.404,260.853c5.542,0,10.033-4.49,10.033-10.032v-13.377c0-5.543-4.493-10.033-10.033-10.033
				s-10.032,4.49-10.032,10.033v13.377C551.371,256.362,555.863,260.853,561.404,260.853z"/>
			<path fill="#FFFFFF" d="M601.535,260.853c5.541,0,10.032-4.49,10.032-10.032v-13.377c0-5.543-4.492-10.033-10.032-10.033
				s-10.032,4.49-10.032,10.033v13.377C591.503,256.362,595.994,260.853,601.535,260.853z"/>
			<path fill="#FFFFFF" d="M240.354,287.607c5.541,0,10.033-4.49,10.033-10.032v-13.378c0-5.542-4.493-10.032-10.033-10.032
				s-10.032,4.49-10.032,10.032v13.378C230.322,283.116,234.814,287.607,240.354,287.607z"/>
			<path fill="#FFFFFF" d="M280.486,287.607c5.541,0,10.032-4.49,10.032-10.032v-13.378c0-5.542-4.492-10.032-10.032-10.032
				s-10.033,4.49-10.033,10.032v13.378C270.452,283.116,274.945,287.607,280.486,287.607z"/>
			<path fill="#FFFFFF" d="M320.616,287.607c5.542,0,10.033-4.49,10.033-10.032v-13.378c0-5.542-4.493-10.032-10.033-10.032
				s-10.032,4.49-10.032,10.032v13.378C310.584,283.116,315.075,287.607,320.616,287.607z"/>
			<path fill="#FFFFFF" d="M240.354,354.493c5.541,0,10.033-4.49,10.033-10.032v-13.378c0-5.542-4.493-10.032-10.033-10.032
				s-10.032,4.49-10.032,10.032v13.378C230.322,350.002,234.814,354.493,240.354,354.493z"/>
			<path fill="#FFFFFF" d="M280.486,354.493c5.541,0,10.032-4.49,10.032-10.032v-13.378c0-5.542-4.492-10.032-10.032-10.032
				s-10.033,4.49-10.033,10.032v13.378C270.452,350.002,274.945,354.493,280.486,354.493z"/>
			<path fill="#FFFFFF" d="M320.616,354.493c5.542,0,10.033-4.49,10.033-10.032v-13.378c0-5.542-4.493-10.032-10.033-10.032
				s-10.032,4.49-10.032,10.032v13.378C310.584,350.002,315.075,354.493,320.616,354.493z"/>
			<path fill="#FFFFFF" d="M240.354,421.379c5.541,0,10.033-4.49,10.033-10.033v-13.377c0-5.543-4.493-10.033-10.033-10.033
				s-10.032,4.49-10.032,10.033v13.377C230.322,416.888,234.814,421.379,240.354,421.379z"/>
			<path fill="#FFFFFF" d="M280.486,421.379c5.541,0,10.032-4.49,10.032-10.033v-13.377c0-5.543-4.492-10.033-10.032-10.033
				s-10.033,4.49-10.033,10.033v13.377C270.452,416.888,274.945,421.379,280.486,421.379z"/>
			<path fill="#FFFFFF" d="M320.616,421.379c5.542,0,10.033-4.49,10.033-10.033v-13.377c0-5.543-4.493-10.033-10.033-10.033
				s-10.032,4.49-10.032,10.033v13.377C310.584,416.888,315.075,421.379,320.616,421.379z"/>
			<path fill="#FFFFFF" d="M240.354,488.263c5.541,0,10.033-4.49,10.033-10.032v-13.378c0-5.542-4.493-10.032-10.033-10.032
				s-10.032,4.49-10.032,10.032v13.378C230.322,483.773,234.814,488.263,240.354,488.263z"/>
			<path fill="#FFFFFF" d="M280.486,488.263c5.541,0,10.032-4.49,10.032-10.032v-13.378c0-5.542-4.492-10.032-10.032-10.032
				s-10.033,4.49-10.033,10.032v13.378C270.452,483.773,274.945,488.263,280.486,488.263z"/>
			<path fill="#FFFFFF" d="M320.616,488.263c5.542,0,10.033-4.49,10.033-10.032v-13.378c0-5.542-4.493-10.032-10.033-10.032
				s-10.032,4.49-10.032,10.032v13.378C310.584,483.773,315.075,488.263,320.616,488.263z"/>
			<path fill="#FFFFFF" d="M601.535,327.739c5.541,0,10.032-4.49,10.032-10.032v-13.378c0-5.542-4.492-10.032-10.032-10.032
				s-10.032,4.49-10.032,10.032v13.378C591.503,323.248,595.994,327.739,601.535,327.739z"/>
			<path fill="#FFFFFF" d="M601.535,394.625c5.541,0,10.032-4.49,10.032-10.033v-13.377c0-5.543-4.492-10.033-10.032-10.033
				s-10.032,4.49-10.032,10.033v13.377C591.503,390.134,595.994,394.625,601.535,394.625z"/>
			<path fill="#FFFFFF" d="M601.535,461.51c5.541,0,10.032-4.49,10.032-10.032v-13.378c0-5.542-4.492-10.032-10.032-10.032
				s-10.032,4.49-10.032,10.032v13.378C591.503,457.018,595.994,461.51,601.535,461.51z"/>
			<path fill="#FFFFFF" d="M601.535,528.395c5.541,0,10.032-4.49,10.032-10.032v-13.378c0-5.542-4.492-10.032-10.032-10.032
				s-10.032,4.49-10.032,10.032v13.378C591.503,523.904,595.994,528.395,601.535,528.395z"/>
			<path fill="#FFFFFF" d="M424.288,157.18c0-5.542-4.492-10.032-10.032-10.032h-80.263c-5.541,0-10.033,4.49-10.033,10.032
				c0,5.543,4.493,10.033,10.033,10.033h80.263C419.797,167.214,424.288,162.723,424.288,157.18z"/>
		</g>
	</g>
</g>
</svg>
