<?xml version="1.0" encoding="utf-8"?>
<!-- Generator: Adobe Illustrator 16.0.0, SVG Export Plug-In . SVG Version: 6.00 Build 0)  -->
<!DOCTYPE svg PUBLIC "-//W3C//DTD SVG 1.1//EN" "http://www.w3.org/Graphics/SVG/1.1/DTD/svg11.dtd">
<svg version="1.1" id="Capa_1" xmlns="http://www.w3.org/2000/svg" xmlns:xlink="http://www.w3.org/1999/xlink" x="0px" y="0px"
	 width="841.889px" height="595.281px" viewBox="0 0 841.889 595.281" enable-background="new 0 0 841.889 595.281"
	 xml:space="preserve">
<g>
	<g>
		<path fill="#FFFFFF" d="M455.668,0C329.847,0,227.479,102.369,227.479,228.191v36.56l-67.654,96.654
			c-2.123,3.036-2.381,6.984-0.674,10.269s5.1,5.338,8.8,5.338h59.528v69.449c0,38.286,31.153,69.449,69.449,69.449h39.685v69.448
			c0,5.487,4.445,9.921,9.921,9.921h257.955c5.486,0,9.921-4.434,9.921-9.921v-12.352c0.437-74.48,14.783-147.253,42.612-216.235
			c16.856-40.926,25.885-84.114,26.838-128.373c0-0.069,0-0.139,0-0.208C683.86,102.369,581.502,0,455.668,0z M638.638,349.292
			c-28.781,71.384-43.614,146.607-44.07,223.666v2.479H356.455v-69.449c0-5.486-4.444-9.921-9.921-9.921h-49.606
			c-27.353,0-49.607-22.253-49.607-49.606V367.09c0-5.486-4.444-9.921-9.921-9.921h-50.4l58.526-83.607
			c1.171-1.667,1.796-3.65,1.796-5.686v-39.685c0-114.889,93.459-208.348,208.348-208.348c114.85,0,208.289,93.408,208.349,208.238
			C663.104,269.841,654.572,310.607,638.638,349.292z"/>
	</g>
</g>
<g>
	<g>
		<path fill="#FFFFFF" d="M455.937,108.877c-0.079,0-0.168,0-0.268,0c-65.52,0-118.896,53.238-119.056,118.789
			c-0.079,35.776,15.696,69.35,43.108,91.961c10.824,9.375,16.816,22.957,16.42,37.542v49.606c0,16.41,13.354,29.765,29.764,29.765
			h59.528c16.409,0,29.764-13.354,29.764-29.765v-52.027c0.238-13.949,6.568-27.016,17.521-35.944
			c26.729-22.582,42.046-55.609,42.007-90.602C574.864,162.561,521.576,109.035,455.937,108.877z M520.029,303.543
			c-15.358,12.531-24.356,31.073-24.685,51.057v52.186c0,5.476-4.444,9.921-9.921,9.921h-59.528c-5.467,0-9.921-4.445-9.921-9.921
			v-49.339c0.546-20.278-7.927-39.536-23.443-52.971c-22.988-18.959-36.144-46.938-36.073-76.752
			c0.129-54.637,44.615-98.995,99.212-98.995c0.079,0,0.16,0,0.219,0c54.707,0.129,99.114,44.735,98.985,99.442
			c0,0.01,0,0.02,0,0.03C554.911,257.349,542.153,284.851,520.029,303.543z"/>
	</g>
</g>
<g>
	<g>
		<rect x="406.063" y="357.169" fill="#FFFFFF" width="99.213" height="19.843"/>
	</g>
</g>
<g>
	<g>
		<path fill="#FFFFFF" d="M504.105,223.508c-1.727-3.224-5.09-5.238-8.75-5.238h-79.371c-3.661,0-7.015,2.014-8.75,5.248
			c-1.727,3.224-1.538,7.133,0.496,10.179l18.176,27.265V367.09h19.843V257.954c0-1.954-0.584-3.88-1.667-5.506l-9.563-14.337
			h42.304l-9.563,14.337c-1.081,1.626-1.667,3.552-1.667,5.506V367.09h19.843V260.961l18.176-27.273
			C505.632,230.651,505.831,226.732,504.105,223.508z"/>
	</g>
</g>
<g>
	<g>
		<rect x="445.747" y="49.607" fill="#FFFFFF" width="19.844" height="39.685"/>
	</g>
</g>
<g>
	<g>
		<rect x="277.084" y="218.269" fill="#FFFFFF" width="39.686" height="19.843"/>
	</g>
</g>
<g>
	<g>
		<rect x="594.568" y="208.348" fill="#FFFFFF" width="39.685" height="19.843"/>
	</g>
</g>
<g>
	<g>
		
			<rect x="331.652" y="93.057" transform="matrix(-0.7071 0.7071 -0.7071 -0.7071 663.7922 -46.7287)" fill="#FFFFFF" width="19.842" height="42.095"/>
	</g>
</g>
<g>
	<g>
		
			<rect x="548.727" y="104.194" transform="matrix(-0.7071 0.7071 -0.7071 -0.7071 1053.3577 -208.085)" fill="#FFFFFF" width="42.096" height="19.842"/>
	</g>
</g>
<g>
	<g>
		
			<rect x="310.603" y="322.436" transform="matrix(-0.7071 0.7071 -0.7071 -0.7071 801.1771 332.8569)" fill="#FFFFFF" width="42.096" height="19.842"/>
	</g>
</g>
<g>
	<g>
		
			<rect x="569.758" y="311.335" transform="matrix(-0.7071 0.7071 -0.7071 -0.7071 1224.5981 157.496)" fill="#FFFFFF" width="19.842" height="42.096"/>
	</g>
</g>
</svg>
