<?xml version="1.0" encoding="utf-8"?>
<!-- Generator: Adobe Illustrator 16.0.0, SVG Export Plug-In . SVG Version: 6.00 Build 0)  -->
<!DOCTYPE svg PUBLIC "-//W3C//DTD SVG 1.1//EN" "http://www.w3.org/Graphics/SVG/1.1/DTD/svg11.dtd">
<svg version="1.1" id="Capa_1" xmlns="http://www.w3.org/2000/svg" xmlns:xlink="http://www.w3.org/1999/xlink" x="0px" y="0px"
	 width="841.889px" height="595.281px" viewBox="0 0 841.889 595.281" enable-background="new 0 0 841.889 595.281"
	 xml:space="preserve">
<g>
	<defs>
		<path id="SVGID_1_" d="M718.112,484.807c0,6.627-5.372,12-12,12h-570c-6.627,0-12-5.373-12-12v-374c0-6.627,5.373-12,12-12h570
			c6.628,0,12,5.373,12,12V484.807z"/>
	</defs>
	<clipPath id="SVGID_2_">
		<use xlink:href="#SVGID_1_"  overflow="visible"/>
	</clipPath>
	<rect x="123.305" y="99.218" clip-path="url(#SVGID_2_)" fill="#F0F0F0" width="595.279" height="396.846"/>
	<rect x="123.305" y="99.218" clip-path="url(#SVGID_2_)" fill="#D80027" width="595.279" height="198.423"/>
	<g clip-path="url(#SVGID_2_)">
		<path fill="#F0F0F0" d="M220.361,198.426c0-28.909,20.319-53.06,47.45-58.985c-4.17-0.912-8.496-1.405-12.939-1.405
			c-33.354,0-60.392,27.037-60.392,60.39c0,33.354,27.038,60.391,60.392,60.391c4.443,0,8.77-0.494,12.939-1.404
			C240.68,251.487,220.361,227.337,220.361,198.426z"/>
		<polygon fill="#F0F0F0" points="298.007,142.35 302.29,155.531 316.15,155.531 304.936,163.677 309.219,176.859 298.007,168.714 
			286.793,176.859 291.077,163.677 279.864,155.531 293.724,155.531 		"/>
		<polygon fill="#F0F0F0" points="264.386,168.232 268.668,181.413 282.529,181.413 271.315,189.559 275.598,202.741 
			264.386,194.595 253.172,202.741 257.456,189.559 246.242,181.413 260.103,181.413 		"/>
		<polygon fill="#F0F0F0" points="331.627,168.232 335.91,181.413 349.771,181.413 338.557,189.559 342.84,202.741 331.627,194.595 
			320.414,202.741 324.698,189.559 313.485,181.413 327.345,181.413 		"/>
		<polygon fill="#F0F0F0" points="318.686,207.054 322.969,220.235 336.829,220.235 325.616,228.382 329.9,241.563 318.686,233.418 
			307.474,241.563 311.757,228.382 300.545,220.235 314.404,220.235 		"/>
		<polygon fill="#F0F0F0" points="277.326,207.054 281.609,220.235 295.469,220.235 284.256,228.382 288.539,241.563 
			277.326,233.418 266.114,241.563 270.397,228.382 259.185,220.235 273.043,220.235 		"/>
	</g>
</g>
</svg>
