<?xml version="1.0" encoding="utf-8"?>
<!-- Generator: Adobe Illustrator 16.0.0, SVG Export Plug-In . SVG Version: 6.00 Build 0)  -->
<!DOCTYPE svg PUBLIC "-//W3C//DTD SVG 1.1//EN" "http://www.w3.org/Graphics/SVG/1.1/DTD/svg11.dtd">
<svg version="1.1" id="Capa_1" xmlns="http://www.w3.org/2000/svg" xmlns:xlink="http://www.w3.org/1999/xlink" x="0px" y="0px"
	 width="841.889px" height="595.281px" viewBox="0 0 841.889 595.281" enable-background="new 0 0 841.889 595.281"
	 xml:space="preserve">
<g>
	<g>
		<path fill="#FFFFFF" d="M673.018,102.366c-0.092-0.019-0.184-0.035-0.275-0.05c-22.018-3.609-39.458,9.732-45.507,34.81
			l-36.182,108.751c-9.102-5.416-21.964-8.047-36.517,0.389c-13.12-9.314-28.896-14.39-45.081-14.39
			c-1.677,0-3.38,0.058-5.099,0.173c-18.418-25.778-46.932-41.898-78.317-44.431V91.714h28.053
			c21.974,0,39.851-17.877,39.851-39.849V8.719c0-4.816-3.903-8.72-8.721-8.72h-36.773c-21.972,0-39.849,17.877-39.849,39.85v18.694
			c-8.641-7.363-19.829-11.823-32.046-11.823h-48.156c-4.815,0-8.72,3.902-8.72,8.72v36.733c0,27.286,22.199,49.487,49.487,49.487
			h39.437v45.957c-31.388,2.532-59.9,18.652-78.317,44.431c-1.72-0.116-3.423-0.173-5.1-0.173c-15.053,0-29.444,4.229-41.961,12.266
			c-12.85-5.779-24.155-3.162-32.387,1.735l-36.184-108.751c-6.051-25.078-23.489-38.424-45.505-34.81
			c-0.092,0.015-0.184,0.031-0.275,0.05c-28.667,5.644-32.794,33.101-30.713,48.433c0.021,0.167,0.049,0.33,0.081,0.494
			l33.167,170.266c4.16,30.007,24.467,47.735,33.021,53.973c0.113,0.082,0.229,0.162,0.345,0.238
			c60.54,39.849,61.211,38.13,73.257,56.961h-17.359c-0.005,0-0.01,0-0.016,0c-10.108,0-18.34,8.178-18.353,18.247v124.738
			c0,10.788,8.775,19.563,19.563,19.563h147.563c4.277,0,8.242-1.343,11.515-3.617c3.271,2.274,7.236,3.617,11.515,3.617h58.892
			c4.816,0,8.72-3.902,8.72-8.72c0-4.816-3.903-8.72-8.72-8.72H432.46c-1.539,0-2.792-1.254-2.792-2.793v-70.709h152.479v71.379
			c0,1.171-0.952,2.123-2.123,2.123h-47.977c-4.817,0-8.72,3.903-8.72,8.72c0,4.817,3.902,8.72,8.72,8.72h47.977
			c10.789,0,19.564-8.775,19.564-19.563v-124.75c-0.013-10.06-8.243-18.236-18.346-18.236c-0.005,0-0.012,0-0.017,0h-17.361
			c12.129-18.962,13.363-17.54,73.257-56.961c0.117-0.075,0.23-0.155,0.344-0.238c8.551-6.235,28.854-23.96,33.02-53.962
			l6.708-34.445c0.921-4.727-2.163-9.306-6.892-10.227c-4.729-0.925-9.305,2.163-10.227,6.892l-6.759,34.698
			c-0.038,0.198-0.071,0.398-0.096,0.6c-3.081,22.445-17.45,36.054-25.868,42.232c-64.209,42.264-63.991,39.252-81.703,67.606
			c-0.766,1.227-1.558,2.493-2.385,3.805H434.93c10.524-61.609,8.137-56.833,46.458-112.188
			c9.358-12.966,17.606-16.938,80.284-58.193c14.953-9.85,24.742,1.511,26.512,3.829c0.018,0.024,0.039,0.044,0.058,0.068
			c0.037,0.049,0.068,0.102,0.108,0.148c1.935,2.518,7.533,11.362-1.658,19.452c-16.173,14.232-54.531,48.263-54.917,48.604
			c-3.603,3.196-3.932,8.708-0.735,12.312c3.197,3.604,8.709,3.93,12.311,0.736c0.385-0.342,38.719-34.349,54.866-48.561
			c14.405-12.68,12.348-28.945,6.604-39.186l39.078-117.454c0.065-0.195,0.122-0.392,0.174-0.591l0.117-0.477
			c2.733-11.342,9.402-24.296,25.597-21.726c18.748,3.792,17.288,24.064,16.695,28.716L668,243.093
			c-0.921,4.727,2.163,9.307,6.892,10.228c4.729,0.924,9.305-2.164,10.227-6.893l18.532-95.135c0.031-0.163,0.059-0.327,0.081-0.492
			C705.812,135.469,701.688,108.013,673.018,102.366z M369.16,124.219c-17.67,0-32.047-14.375-32.047-32.046V64.163h39.437
			c17.67,0,32.045,14.375,32.045,32.046v28.011H369.16z M426.038,65.27V39.849c0-12.357,10.054-22.408,22.408-22.408h28.052v34.423
			c0,12.356-10.053,22.407-22.408,22.407h-28.053L426.038,65.27L426.038,65.27z M214.536,361.319
			c-8.414-6.176-22.77-19.773-25.862-42.194c-0.025-0.215-0.06-0.427-0.101-0.638l-33.167-170.265
			c-0.593-4.653-2.05-24.925,16.693-28.715c16.204-2.57,22.864,10.385,25.598,21.725l0.117,0.479
			c0.05,0.198,0.108,0.396,0.173,0.589l39.078,117.454c-5.742,10.241-7.8,26.507,6.605,39.186
			c16.146,14.211,54.48,48.217,54.867,48.56c3.602,3.194,9.112,2.867,12.31-0.736c3.196-3.603,2.866-9.114-0.735-12.312
			c-0.387-0.342-38.745-34.371-54.917-48.604c-9.181-8.079-3.605-16.912-1.665-19.442c0.025-0.032,0.046-0.067,0.072-0.101
			c0.019-0.024,0.039-0.045,0.058-0.069c5.942-7.798,15.556-10.575,25.619-4.458c0.567,0.343,27.657,18.084,28.213,18.446
			c38.355,25.064,45.266,29.58,53.031,40.352c0.007,0.009,0.014,0.019,0.02,0.026c39.223,56.662,36.21,52.359,46.413,112.129
			H298.624c-0.829-1.313-1.621-2.58-2.387-3.807C278.531,400.581,278.798,403.618,214.536,361.319z M409.428,577.839H261.865
			c-1.171,0-2.123-0.952-2.123-2.123v-71.379H412.22v70.709h0.001C412.221,576.585,410.968,577.839,409.428,577.839z
			 M412.221,451.175v35.723H259.741v-35.908c0-0.531,0.47-0.817,0.92-0.817c4.012,0,146.799,0,150.678,0
			c0.117,0,0.231,0.029,0.336,0.08c0.013,0.006,0.021,0.019,0.033,0.025c0.296,0.164,0.513,0.503,0.513,0.887V451.175
			L412.221,451.175z M581.23,450.171c0.442,0,0.911,0.286,0.912,0.806v35.92H429.662v-35.725v-0.021c0-0.052,0.021-0.1,0.029-0.15
			c0.07-0.454,0.43-0.829,0.852-0.83C434.43,450.171,577.209,450.171,581.23,450.171z M469.216,307.693
			c-0.029,0.037-0.059,0.073-0.088,0.11c-40.277,52.178-44.829,83.38-48.186,102.999c-3.158-18.464-5.61-30.703-10.436-42.407
			c-7.952-19.368-35.874-58.427-39.565-62.856c-9.802-11.763-22.405-19.234-70.361-50.681c-0.101-0.066-0.206-0.137-0.309-0.202
			c7.754-3.517,16.188-5.34,24.906-5.34c2.661,0.002,5.429,0.194,8.224,0.573c3.357,0.455,6.68-1.076,8.512-3.93
			c16.589-25.836,44.776-41.26,75.402-41.26s58.813,15.425,75.402,41.26c1.832,2.854,5.163,4.385,8.512,3.93
			c2.794-0.379,5.561-0.571,8.222-0.571c10.182,0,20.155,2.585,28.991,7.413C490.352,288.229,479.185,294.823,469.216,307.693z"/>
	</g>
</g>
</svg>
