<?xml version="1.0" encoding="utf-8"?>
<!-- Generator: Adobe Illustrator 16.0.0, SVG Export Plug-In . SVG Version: 6.00 Build 0)  -->
<!DOCTYPE svg PUBLIC "-//W3C//DTD SVG 1.1//EN" "http://www.w3.org/Graphics/SVG/1.1/DTD/svg11.dtd">
<svg version="1.1" id="Layer_1" xmlns="http://www.w3.org/2000/svg" xmlns:xlink="http://www.w3.org/1999/xlink" x="0px" y="0px"
	 width="841.889px" height="595.281px" viewBox="0 0 841.889 595.281" enable-background="new 0 0 841.889 595.281"
	 xml:space="preserve">
<g>
	<path fill="#F5F5F5" d="M708.32,492.646H133.569c-5.668,0-10.264-4.596-10.264-10.264V112.898c0-5.668,4.596-10.264,10.264-10.264
		h574.752c5.668,0,10.264,4.596,10.264,10.264v369.484C718.583,488.052,713.988,492.646,708.32,492.646z"/>
	<g>
		<path fill="#FF4B55" d="M718.583,132.636H123.305v-19.738c0-5.668,4.596-10.264,10.264-10.264h574.752
			c5.668,0,10.264,4.596,10.264,10.264L718.583,132.636L718.583,132.636z"/>
		<rect x="123.305" y="222.637" fill="#FF4B55" width="595.278" height="30.002"/>
		<rect x="123.305" y="162.634" fill="#FF4B55" width="595.278" height="30.001"/>
		<path fill="#FF4B55" d="M718.583,312.641H133.569c-5.668,0-10.264-4.596-10.264-10.264v-19.738h595.278V312.641z"/>
		<rect x="123.305" y="402.652" fill="#FF4B55" width="595.278" height="30.001"/>
		<path fill="#FF4B55" d="M708.32,492.646H133.569c-5.668,0-10.264-4.596-10.264-10.264v-19.737h595.278v19.738
			C718.583,488.052,713.988,492.646,708.32,492.646z"/>
		<rect x="123.305" y="342.647" fill="#FF4B55" width="595.278" height="30.001"/>
	</g>
	<path fill="#41479B" d="M390.154,102.635H133.569c-5.668,0-10.264,4.595-10.264,10.263v189.479c0,5.668,4.596,10.264,10.264,10.264
		h256.586c5.668,0,10.264-4.596,10.264-10.264V112.898C400.417,107.23,395.822,102.635,390.154,102.635z"/>
	<g>
		<path fill="#F5F5F5" d="M152.125,126.192l2.272,6.813l7.182,0.055c0.93,0.008,1.314,1.193,0.567,1.746l-5.777,4.267l2.167,6.847
			c0.281,0.887-0.729,1.621-1.485,1.079l-5.843-4.175l-5.842,4.177c-0.757,0.54-1.766-0.193-1.486-1.079l2.167-6.848l-5.777-4.267
			c-0.747-0.554-0.362-1.738,0.567-1.746l7.182-0.055l2.272-6.813C150.584,125.309,151.83,125.309,152.125,126.192z"/>
		<path fill="#F5F5F5" d="M152.125,161.832l2.272,6.813l7.182,0.055c0.93,0.008,1.314,1.194,0.567,1.746l-5.777,4.268l2.167,6.847
			c0.281,0.886-0.729,1.62-1.485,1.079l-5.843-4.176l-5.842,4.177c-0.757,0.54-1.766-0.193-1.486-1.079l2.167-6.847l-5.777-4.268
			c-0.747-0.553-0.362-1.737,0.567-1.746l7.182-0.055l2.272-6.813C150.584,160.951,151.83,160.951,152.125,161.832z"/>
		<path fill="#F5F5F5" d="M152.125,197.472l2.272,6.813l7.182,0.055c0.93,0.009,1.314,1.194,0.567,1.747l-5.777,4.267l2.167,6.847
			c0.281,0.886-0.729,1.621-1.485,1.079l-5.843-4.175l-5.842,4.176c-0.757,0.541-1.766-0.192-1.486-1.079l2.167-6.847l-5.777-4.267
			c-0.747-0.554-0.362-1.738,0.567-1.746l7.182-0.055l2.272-6.813C150.584,196.591,151.83,196.591,152.125,197.472z"/>
		<path fill="#F5F5F5" d="M152.125,233.113l2.272,6.813l7.182,0.055c0.93,0.008,1.314,1.194,0.567,1.746l-5.777,4.268l2.167,6.847
			c0.281,0.886-0.729,1.62-1.485,1.079l-5.843-4.176l-5.842,4.177c-0.757,0.54-1.766-0.193-1.486-1.079l2.167-6.847l-5.777-4.268
			c-0.747-0.553-0.362-1.737,0.567-1.746l7.182-0.055l2.272-6.813C150.584,232.231,151.83,232.231,152.125,233.113z"/>
		<path fill="#F5F5F5" d="M152.125,268.754l2.272,6.813l7.182,0.055c0.93,0.009,1.314,1.194,0.567,1.747l-5.777,4.267l2.167,6.847
			c0.281,0.886-0.729,1.621-1.485,1.079l-5.843-4.175l-5.842,4.176c-0.757,0.541-1.766-0.192-1.486-1.079l2.167-6.847l-5.777-4.267
			c-0.747-0.554-0.362-1.738,0.567-1.746l7.182-0.055l2.272-6.813C150.584,267.87,151.83,267.87,152.125,268.754z"/>
		<path fill="#F5F5F5" d="M179.788,143.666l2.272,6.813l7.182,0.055c0.93,0.008,1.314,1.193,0.567,1.746l-5.777,4.267l2.167,6.847
			c0.281,0.887-0.729,1.621-1.485,1.079l-5.843-4.176l-5.842,4.176c-0.758,0.541-1.766-0.192-1.486-1.079l2.167-6.847l-5.777-4.267
			c-0.747-0.554-0.362-1.738,0.567-1.746l7.182-0.055l2.272-6.813C178.246,142.785,179.494,142.785,179.788,143.666z"/>
		<path fill="#F5F5F5" d="M179.788,179.307l2.272,6.813l7.182,0.055c0.93,0.009,1.314,1.194,0.567,1.746l-5.777,4.268l2.167,6.847
			c0.281,0.886-0.729,1.621-1.485,1.079l-5.843-4.177l-5.842,4.177c-0.758,0.54-1.766-0.192-1.486-1.079l2.167-6.847l-5.777-4.268
			c-0.747-0.553-0.362-1.737,0.567-1.746l7.182-0.055l2.272-6.813C178.246,178.425,179.494,178.425,179.788,179.307z"/>
		<path fill="#F5F5F5" d="M179.788,214.947l2.272,6.813l7.182,0.055c0.93,0.008,1.314,1.193,0.567,1.746l-5.777,4.267l2.167,6.847
			c0.281,0.886-0.729,1.621-1.485,1.079l-5.843-4.176l-5.842,4.176c-0.758,0.541-1.766-0.193-1.486-1.079l2.167-6.847l-5.777-4.267
			c-0.747-0.554-0.362-1.738,0.567-1.746l7.182-0.055l2.272-6.813C178.246,214.064,179.494,214.064,179.788,214.947z"/>
		<path fill="#F5F5F5" d="M179.788,250.587l2.272,6.813l7.182,0.055c0.93,0.008,1.314,1.194,0.567,1.746l-5.777,4.267l2.167,6.848
			c0.281,0.886-0.729,1.62-1.485,1.078l-5.843-4.176l-5.842,4.176c-0.758,0.541-1.766-0.192-1.486-1.078l2.167-6.848l-5.777-4.267
			c-0.747-0.554-0.362-1.738,0.567-1.746l7.182-0.055l2.272-6.813C178.246,249.706,179.494,249.706,179.788,250.587z"/>
		<path fill="#F5F5F5" d="M207.451,126.192l2.272,6.813l7.182,0.055c0.93,0.008,1.314,1.193,0.567,1.746l-5.777,4.267l2.167,6.847
			c0.281,0.887-0.729,1.621-1.485,1.079l-5.843-4.176l-5.843,4.176c-0.757,0.541-1.765-0.192-1.485-1.079l2.167-6.847l-5.777-4.267
			c-0.747-0.554-0.362-1.738,0.567-1.746l7.182-0.055l2.272-6.813C205.91,125.309,207.157,125.309,207.451,126.192z"/>
		<path fill="#F5F5F5" d="M207.451,161.832l2.272,6.813l7.182,0.055c0.93,0.008,1.314,1.194,0.567,1.746l-5.777,4.268l2.167,6.847
			c0.281,0.886-0.729,1.62-1.485,1.079l-5.843-4.177l-5.843,4.177c-0.757,0.54-1.765-0.193-1.485-1.079l2.167-6.847l-5.777-4.268
			c-0.747-0.553-0.362-1.738,0.567-1.746l7.182-0.055l2.272-6.813C205.91,160.951,207.157,160.951,207.451,161.832z"/>
		<path fill="#F5F5F5" d="M207.451,197.472l2.272,6.813l7.182,0.055c0.93,0.009,1.314,1.194,0.567,1.747l-5.777,4.267l2.167,6.847
			c0.281,0.886-0.729,1.621-1.485,1.079l-5.843-4.176l-5.843,4.176c-0.757,0.541-1.765-0.193-1.485-1.079l2.167-6.847l-5.777-4.267
			c-0.747-0.554-0.362-1.738,0.567-1.747l7.182-0.055l2.272-6.813C205.91,196.591,207.157,196.591,207.451,197.472z"/>
		<path fill="#F5F5F5" d="M207.451,233.113l2.272,6.813l7.182,0.055c0.93,0.008,1.314,1.194,0.567,1.746l-5.777,4.268l2.167,6.847
			c0.281,0.886-0.729,1.62-1.485,1.079l-5.843-4.177l-5.843,4.177c-0.757,0.54-1.765-0.193-1.485-1.079l2.167-6.847l-5.777-4.268
			c-0.747-0.553-0.362-1.738,0.567-1.746l7.182-0.055l2.272-6.813C205.91,232.231,207.157,232.231,207.451,233.113z"/>
		<path fill="#F5F5F5" d="M207.451,268.754l2.272,6.813l7.182,0.055c0.93,0.009,1.314,1.194,0.567,1.747l-5.777,4.267l2.167,6.847
			c0.281,0.886-0.729,1.621-1.485,1.079l-5.843-4.177l-5.843,4.177c-0.757,0.541-1.765-0.193-1.485-1.079l2.167-6.847l-5.777-4.267
			c-0.747-0.554-0.362-1.738,0.567-1.747l7.182-0.055l2.272-6.813C205.91,267.87,207.157,267.87,207.451,268.754z"/>
		<path fill="#F5F5F5" d="M235.116,143.666l2.271,6.813l7.182,0.055c0.93,0.008,1.314,1.193,0.567,1.746l-5.777,4.267l2.167,6.847
			c0.281,0.887-0.729,1.621-1.485,1.079l-5.843-4.176l-5.842,4.176c-0.757,0.541-1.766-0.192-1.486-1.079l2.167-6.847l-5.777-4.267
			c-0.747-0.554-0.362-1.738,0.567-1.746l7.182-0.055l2.272-6.813C233.573,142.785,234.822,142.785,235.116,143.666z"/>
		<path fill="#F5F5F5" d="M235.116,179.307l2.271,6.813l7.182,0.055c0.93,0.009,1.314,1.194,0.567,1.746l-5.777,4.268l2.167,6.847
			c0.281,0.886-0.729,1.621-1.485,1.079l-5.843-4.177l-5.842,4.177c-0.757,0.54-1.766-0.192-1.486-1.079l2.167-6.847l-5.777-4.268
			c-0.747-0.553-0.362-1.737,0.567-1.746l7.182-0.055l2.272-6.813C233.573,178.425,234.822,178.425,235.116,179.307z"/>
		<path fill="#F5F5F5" d="M235.116,214.947l2.271,6.813l7.182,0.055c0.93,0.008,1.314,1.193,0.567,1.746l-5.777,4.267l2.167,6.847
			c0.281,0.886-0.729,1.621-1.485,1.079l-5.843-4.176l-5.842,4.176c-0.757,0.541-1.766-0.193-1.486-1.079l2.167-6.847l-5.777-4.267
			c-0.747-0.554-0.362-1.738,0.567-1.746l7.182-0.055l2.272-6.813C233.573,214.064,234.822,214.064,235.116,214.947z"/>
		<path fill="#F5F5F5" d="M235.116,250.587l2.271,6.813l7.182,0.055c0.93,0.008,1.314,1.194,0.567,1.746l-5.777,4.267l2.167,6.848
			c0.281,0.886-0.729,1.62-1.485,1.078l-5.843-4.176l-5.842,4.176c-0.757,0.541-1.766-0.192-1.486-1.078l2.167-6.848l-5.777-4.267
			c-0.747-0.554-0.362-1.738,0.567-1.746l7.182-0.055l2.272-6.813C233.573,249.706,234.822,249.706,235.116,250.587z"/>
		<path fill="#F5F5F5" d="M262.779,126.192l2.272,6.813l7.182,0.055c0.93,0.008,1.314,1.193,0.567,1.746l-5.777,4.267l2.167,6.847
			c0.281,0.887-0.729,1.621-1.485,1.079l-5.844-4.176l-5.843,4.176c-0.757,0.541-1.765-0.192-1.485-1.079l2.167-6.847l-5.777-4.267
			c-0.747-0.554-0.362-1.738,0.567-1.746l7.182-0.055l2.272-6.813C261.238,125.309,262.485,125.309,262.779,126.192z"/>
		<path fill="#F5F5F5" d="M262.779,161.832l2.272,6.813l7.182,0.055c0.93,0.008,1.314,1.194,0.567,1.746l-5.777,4.268l2.167,6.847
			c0.281,0.886-0.729,1.62-1.485,1.079l-5.844-4.177l-5.843,4.177c-0.757,0.54-1.765-0.193-1.485-1.079l2.167-6.847l-5.777-4.268
			c-0.747-0.553-0.362-1.738,0.567-1.746l7.182-0.055l2.272-6.813C261.238,160.951,262.485,160.951,262.779,161.832z"/>
		<path fill="#F5F5F5" d="M262.779,197.472l2.272,6.813l7.182,0.055c0.93,0.009,1.314,1.194,0.567,1.747l-5.777,4.267l2.167,6.847
			c0.281,0.886-0.729,1.621-1.485,1.079l-5.844-4.176l-5.843,4.176c-0.757,0.541-1.765-0.193-1.485-1.079l2.167-6.847l-5.777-4.267
			c-0.747-0.554-0.362-1.738,0.567-1.747l7.182-0.055l2.272-6.813C261.238,196.591,262.485,196.591,262.779,197.472z"/>
		<path fill="#F5F5F5" d="M262.779,233.113l2.272,6.813l7.182,0.055c0.93,0.008,1.314,1.194,0.567,1.746l-5.777,4.268l2.167,6.847
			c0.281,0.886-0.729,1.62-1.485,1.079l-5.844-4.177l-5.843,4.177c-0.757,0.54-1.765-0.193-1.485-1.079l2.167-6.847l-5.777-4.268
			c-0.747-0.553-0.362-1.738,0.567-1.746l7.182-0.055l2.272-6.813C261.238,232.231,262.485,232.231,262.779,233.113z"/>
		<path fill="#F5F5F5" d="M262.779,268.754l2.272,6.813l7.182,0.055c0.93,0.009,1.314,1.194,0.567,1.747l-5.777,4.267l2.167,6.847
			c0.281,0.886-0.729,1.621-1.485,1.079l-5.844-4.177l-5.843,4.177c-0.757,0.541-1.765-0.193-1.485-1.079l2.167-6.847l-5.777-4.267
			c-0.747-0.554-0.362-1.738,0.567-1.747l7.182-0.055l2.272-6.813C261.238,267.87,262.485,267.87,262.779,268.754z"/>
		<path fill="#F5F5F5" d="M290.442,143.666l2.272,6.813l7.182,0.055c0.93,0.008,1.314,1.193,0.567,1.746l-5.777,4.267l2.167,6.847
			c0.281,0.887-0.729,1.621-1.485,1.079l-5.843-4.176l-5.842,4.176c-0.758,0.541-1.766-0.192-1.486-1.079l2.167-6.847l-5.777-4.267
			c-0.747-0.554-0.362-1.738,0.567-1.746l7.182-0.055l2.272-6.813C288.902,142.785,290.148,142.785,290.442,143.666z"/>
		<path fill="#F5F5F5" d="M290.442,179.307l2.272,6.813l7.182,0.055c0.93,0.009,1.314,1.194,0.567,1.746l-5.777,4.268l2.167,6.847
			c0.281,0.886-0.729,1.621-1.485,1.079l-5.843-4.177l-5.842,4.177c-0.758,0.54-1.766-0.192-1.486-1.079l2.167-6.847l-5.777-4.268
			c-0.747-0.553-0.362-1.737,0.567-1.746l7.182-0.055l2.272-6.813C288.902,178.425,290.148,178.425,290.442,179.307z"/>
		<path fill="#F5F5F5" d="M290.442,214.947l2.272,6.813l7.182,0.055c0.93,0.008,1.314,1.193,0.567,1.746l-5.777,4.267l2.167,6.847
			c0.281,0.886-0.729,1.621-1.485,1.079l-5.843-4.176l-5.842,4.176c-0.758,0.541-1.766-0.193-1.486-1.079l2.167-6.847l-5.777-4.267
			c-0.747-0.554-0.362-1.738,0.567-1.746l7.182-0.055l2.272-6.813C288.902,214.064,290.148,214.064,290.442,214.947z"/>
		<path fill="#F5F5F5" d="M290.442,250.587l2.272,6.813l7.182,0.055c0.93,0.008,1.314,1.194,0.567,1.746l-5.777,4.267l2.167,6.848
			c0.281,0.886-0.729,1.62-1.485,1.078l-5.843-4.176l-5.842,4.176c-0.758,0.541-1.766-0.192-1.486-1.078l2.167-6.848l-5.777-4.267
			c-0.747-0.554-0.362-1.738,0.567-1.746l7.182-0.055l2.272-6.813C288.902,249.706,290.148,249.706,290.442,250.587z"/>
		<path fill="#F5F5F5" d="M318.107,126.192l2.271,6.813l7.182,0.055c0.93,0.008,1.315,1.193,0.567,1.746l-5.777,4.267l2.167,6.847
			c0.281,0.887-0.729,1.621-1.485,1.079l-5.843-4.176l-5.842,4.176c-0.757,0.541-1.766-0.192-1.486-1.079l2.167-6.847l-5.777-4.267
			c-0.747-0.554-0.362-1.738,0.567-1.746l7.183-0.055l2.271-6.813C316.564,125.309,317.812,125.309,318.107,126.192z"/>
		<path fill="#F5F5F5" d="M318.107,161.832l2.271,6.813l7.182,0.055c0.93,0.008,1.315,1.194,0.567,1.746l-5.777,4.268l2.167,6.847
			c0.281,0.886-0.729,1.62-1.485,1.079l-5.843-4.177l-5.842,4.177c-0.757,0.54-1.766-0.193-1.486-1.079l2.167-6.847l-5.777-4.268
			c-0.747-0.553-0.362-1.738,0.567-1.746l7.183-0.055l2.271-6.813C316.564,160.951,317.812,160.951,318.107,161.832z"/>
		<path fill="#F5F5F5" d="M318.107,197.472l2.271,6.813l7.182,0.055c0.93,0.009,1.315,1.194,0.567,1.747l-5.777,4.267l2.167,6.847
			c0.281,0.886-0.729,1.621-1.485,1.079l-5.843-4.176l-5.842,4.176c-0.757,0.541-1.766-0.193-1.486-1.079l2.167-6.847l-5.777-4.267
			c-0.747-0.554-0.362-1.738,0.567-1.747l7.183-0.055l2.271-6.813C316.564,196.591,317.812,196.591,318.107,197.472z"/>
		<path fill="#F5F5F5" d="M318.107,233.113l2.271,6.813l7.182,0.055c0.93,0.008,1.315,1.194,0.567,1.746l-5.777,4.268l2.167,6.847
			c0.281,0.886-0.729,1.62-1.485,1.079l-5.843-4.177l-5.842,4.177c-0.757,0.54-1.766-0.193-1.486-1.079l2.167-6.847l-5.777-4.268
			c-0.747-0.553-0.362-1.738,0.567-1.746l7.183-0.055l2.271-6.813C316.564,232.231,317.812,232.231,318.107,233.113z"/>
		<path fill="#F5F5F5" d="M318.107,268.754l2.271,6.813l7.182,0.055c0.93,0.009,1.315,1.194,0.567,1.747l-5.777,4.267l2.167,6.847
			c0.281,0.886-0.729,1.621-1.485,1.079l-5.843-4.177l-5.842,4.177c-0.757,0.541-1.766-0.193-1.486-1.079l2.167-6.847l-5.777-4.267
			c-0.747-0.554-0.362-1.738,0.567-1.747l7.183-0.055l2.271-6.813C316.564,267.87,317.812,267.87,318.107,268.754z"/>
		<path fill="#F5F5F5" d="M345.77,143.666l2.271,6.813l7.182,0.055c0.93,0.008,1.314,1.193,0.567,1.746l-5.777,4.267l2.167,6.847
			c0.281,0.887-0.729,1.621-1.485,1.079l-5.843-4.176l-5.842,4.176c-0.757,0.541-1.766-0.192-1.486-1.079l2.167-6.847l-5.777-4.267
			c-0.747-0.554-0.362-1.738,0.567-1.746l7.183-0.055l2.271-6.813C344.228,142.785,345.476,142.785,345.77,143.666z"/>
		<path fill="#F5F5F5" d="M345.77,179.307l2.271,6.813l7.182,0.055c0.93,0.009,1.314,1.194,0.567,1.746l-5.777,4.268l2.167,6.847
			c0.281,0.886-0.729,1.621-1.485,1.079l-5.843-4.177l-5.842,4.177c-0.757,0.54-1.766-0.192-1.486-1.079l2.167-6.847l-5.777-4.268
			c-0.747-0.553-0.362-1.737,0.567-1.746l7.183-0.055l2.271-6.813C344.228,178.425,345.476,178.425,345.77,179.307z"/>
		<path fill="#F5F5F5" d="M345.77,214.947l2.271,6.813l7.182,0.055c0.93,0.008,1.314,1.193,0.567,1.746l-5.777,4.267l2.167,6.847
			c0.281,0.886-0.729,1.621-1.485,1.079l-5.843-4.176l-5.842,4.176c-0.757,0.541-1.766-0.193-1.486-1.079l2.167-6.847l-5.777-4.267
			c-0.747-0.554-0.362-1.738,0.567-1.746l7.183-0.055l2.271-6.813C344.228,214.064,345.476,214.064,345.77,214.947z"/>
		<path fill="#F5F5F5" d="M345.77,250.587l2.271,6.813l7.182,0.055c0.93,0.008,1.314,1.194,0.567,1.746l-5.777,4.267l2.167,6.848
			c0.281,0.886-0.729,1.62-1.485,1.078l-5.843-4.176l-5.842,4.176c-0.757,0.541-1.766-0.192-1.486-1.078l2.167-6.848l-5.777-4.267
			c-0.747-0.554-0.362-1.738,0.567-1.746l7.183-0.055l2.271-6.813C344.228,249.706,345.476,249.706,345.77,250.587z"/>
		<path fill="#F5F5F5" d="M373.434,126.192l2.271,6.813l7.182,0.055c0.931,0.008,1.315,1.193,0.567,1.746l-5.777,4.267l2.167,6.847
			c0.282,0.887-0.729,1.621-1.485,1.079l-5.843-4.176l-5.842,4.176c-0.757,0.541-1.765-0.192-1.486-1.079l2.167-6.847l-5.776-4.267
			c-0.748-0.554-0.363-1.738,0.567-1.746l7.182-0.055l2.271-6.813C371.892,125.309,373.138,125.309,373.434,126.192z"/>
		<path fill="#F5F5F5" d="M373.434,161.832l2.271,6.813l7.182,0.055c0.931,0.008,1.315,1.194,0.567,1.746l-5.777,4.268l2.167,6.847
			c0.282,0.886-0.729,1.62-1.485,1.079l-5.843-4.177l-5.842,4.177c-0.757,0.54-1.765-0.193-1.486-1.079l2.167-6.847l-5.776-4.268
			c-0.748-0.553-0.363-1.738,0.567-1.746l7.182-0.055l2.271-6.813C371.892,160.951,373.138,160.951,373.434,161.832z"/>
		<path fill="#F5F5F5" d="M373.434,197.472l2.271,6.813l7.182,0.055c0.931,0.009,1.315,1.194,0.567,1.747l-5.777,4.267l2.167,6.847
			c0.282,0.886-0.729,1.621-1.485,1.079l-5.843-4.176l-5.842,4.176c-0.757,0.541-1.765-0.193-1.486-1.079l2.167-6.847l-5.776-4.267
			c-0.748-0.554-0.363-1.738,0.567-1.747l7.182-0.055l2.271-6.813C371.892,196.591,373.138,196.591,373.434,197.472z"/>
		<path fill="#F5F5F5" d="M373.434,233.113l2.271,6.813l7.182,0.055c0.931,0.008,1.315,1.194,0.567,1.746l-5.777,4.268l2.167,6.847
			c0.282,0.886-0.729,1.62-1.485,1.079l-5.843-4.177l-5.842,4.177c-0.757,0.54-1.765-0.193-1.486-1.079l2.167-6.847l-5.776-4.268
			c-0.748-0.553-0.363-1.738,0.567-1.746l7.182-0.055l2.271-6.813C371.892,232.231,373.138,232.231,373.434,233.113z"/>
		<path fill="#F5F5F5" d="M373.434,268.754l2.271,6.813l7.182,0.055c0.931,0.009,1.315,1.194,0.567,1.747l-5.777,4.267l2.167,6.847
			c0.282,0.886-0.729,1.621-1.485,1.079l-5.843-4.177l-5.842,4.177c-0.757,0.541-1.765-0.193-1.486-1.079l2.167-6.847l-5.776-4.267
			c-0.748-0.554-0.363-1.738,0.567-1.747l7.182-0.055l2.271-6.813C371.892,267.87,373.138,267.87,373.434,268.754z"/>
	</g>
</g>
</svg>
