<?xml version="1.0" encoding="utf-8"?>
<!-- Generator: Adobe Illustrator 16.0.0, SVG Export Plug-In . SVG Version: 6.00 Build 0)  -->
<!DOCTYPE svg PUBLIC "-//W3C//DTD SVG 1.1//EN" "http://www.w3.org/Graphics/SVG/1.1/DTD/svg11.dtd">
<svg version="1.1" id="Capa_1" xmlns="http://www.w3.org/2000/svg" xmlns:xlink="http://www.w3.org/1999/xlink" x="0px" y="0px"
	 width="841.889px" height="595.281px" viewBox="0 0 841.889 595.281" enable-background="new 0 0 841.889 595.281"
	 xml:space="preserve">
<g>
	<g>
		<path fill="#FFFFFF" d="M696.821,281.633c-2.581-2.16-6.176-2.642-9.235-1.237C566.719,335.919,492.144,408.092,448.304,464.88
			v-67.771c71.397-12.936,125.717-75.555,125.717-150.625c0-32.861-11.346-76.513-33.724-129.742
			c-16.517-39.285-32.774-68.667-33.458-69.898c-2.338-4.21-7.646-5.728-11.856-3.39c-0.547,0.304-1.047,0.659-1.5,1.055
			l-0.001-0.001c-7.042,6.146-13.859,12.326-20.464,18.528C445.99,24.667,428.36,3.971,427.571,3.05
			C425.913,1.115,423.493,0,420.945,0s-4.969,1.115-6.626,3.053c-0.789,0.922-18.42,21.615-45.444,59.981
			c-6.601-6.197-13.422-12.376-20.468-18.525l-0.001,0.002c-0.453-0.396-0.953-0.752-1.5-1.057c-4.21-2.338-9.518-0.819-11.855,3.39
			c-0.684,1.231-16.942,30.614-33.458,69.898c-22.378,53.229-33.724,96.881-33.724,129.742c0,75.069,54.319,137.688,125.717,150.624
			v67.786c-1.905-2.468-3.851-4.956-5.877-7.484c-40.402-50.399-113.693-122.022-233.403-177.015
			c-3.06-1.405-6.655-0.924-9.236,1.237c-2.582,2.16-3.689,5.616-2.845,8.873c0.478,1.847,12.2,45.859,54.506,102.147
			c24.71,32.876,54.829,63.176,89.518,90.057c31.988,24.788,67.965,46.694,107.337,65.421v38.43c0,4.816,3.903,8.721,8.72,8.721
			c4.815,0,8.72-3.904,8.72-8.721v-30.452c6.527,2.878,13.142,5.669,19.84,8.376v22.076c0,4.816,3.904,8.721,8.72,8.721
			s8.72-3.904,8.72-8.721v-38.411c108.135-51.406,170.507-118.046,203.845-165.068c36.662-51.712,47.091-90.93,47.517-92.573
			C700.51,287.249,699.404,283.794,696.821,281.633z M420.945,22.474c7.695,9.593,21.637,27.546,39.354,52.796
			c-14.337,14.152-27.484,28.391-39.354,42.609c-11.886-14.234-25.026-28.462-39.354-42.605
			C399.307,50.021,413.249,32.067,420.945,22.474z M297.477,469.348c-33.411-25.817-62.418-54.883-86.215-86.388
			c-24.163-31.991-38.012-60.098-45.282-77.677c105.07,51.983,170.558,116.339,207.575,162.355
			c23.392,29.077,39.542,55.983,49.017,74.504C376.067,522.055,334.063,497.62,297.477,469.348z M430.865,520.752
			c-5.193-9.234-11.743-19.983-19.84-31.862V399.23c3.281,0.21,6.587,0.33,9.92,0.33s6.639-0.12,9.92-0.33V520.752L430.865,520.752z
			 M420.946,382.118c-74.791,0.002-135.638-60.844-135.638-135.635c0-60.948,44.523-151.977,59.866-181.531
			c31.87,28.636,58.793,57.736,80.098,86.617c1.711,2.318,4.35,3.543,7.025,3.543c1.797,0,3.612-0.555,5.169-1.703
			c3.875-2.858,4.699-8.318,1.841-12.193c-2.332-3.16-4.746-6.324-7.205-9.486c18.356-22.297,40.046-44.703,64.615-66.779
			c15.344,29.545,59.865,120.54,59.865,181.533c0,53.655-31.318,100.133-76.634,122.116c2.297-3.096,4.447-6.396,6.422-9.908
			c12.102-21.505,16.771-48.838,13.502-79.044c-3.674-33.957-16.979-70.017-39.545-107.18c-2.499-4.116-7.862-5.429-11.979-2.928
			c-4.116,2.5-5.427,7.863-2.927,11.979c39.206,64.567,48.831,127.603,25.75,168.619
			C459.736,370.461,441.428,382.118,420.946,382.118z M637.38,373.756c-31.35,44.002-89.357,105.977-189.076,155.026V494.33
			c37.935-54.354,107.662-129.79,227.614-189.057C669.357,321.15,657.428,345.619,637.38,373.756z"/>
	</g>
</g>
</svg>
